<svg width="19" height="18" viewBox="0 0 19 18" fill="none" xmlns="http://www.w3.org/2000/svg">
<path d="M14.2071 17.932C13.9831 17.932 13.7641 17.882 13.5611 17.786L13.4571 17.735L9.35006 15.392L5.24306 17.736L5.13706 17.789C4.89348 17.9015 4.62444 17.9476 4.35729 17.9225C4.09014 17.8974 3.8344 17.802 3.61606 17.646C3.38429 17.4769 3.20589 17.2448 3.10203 16.9773C2.99816 16.7099 2.97319 16.4182 3.03006 16.137L3.98706 11.495L2.38506 10.038L0.490062 8.313L0.412062 8.231C0.226699 8.03572 0.0973172 7.79414 0.0374936 7.53162C-0.0223299 7.2691 -0.0103895 6.99531 0.0720617 6.739C0.245062 6.215 0.692062 5.827 1.23206 5.73L1.33406 5.712L6.03506 5.191L7.98106 0.881L8.04106 0.771C8.17086 0.537592 8.36062 0.34307 8.59074 0.207529C8.82086 0.0719888 9.08299 0.000345217 9.35006 0C9.89306 0 10.3941 0.298 10.6591 0.77L10.7191 0.882L12.6671 5.194L17.3681 5.715L17.4721 5.732C18.0111 5.832 18.4581 6.218 18.6301 6.744C18.8001 7.265 18.6651 7.842 18.2901 8.238L18.2121 8.316L14.7141 11.5L15.6711 16.132C15.7283 16.4151 15.7031 16.7087 15.5986 16.9779C15.494 17.2472 15.3144 17.4807 15.0811 17.651C14.8263 17.8337 14.5206 17.932 14.2071 17.932ZM6.05806 11.368C6.01906 11.55 5.59206 13.614 5.21306 15.45L8.85606 13.373C9.00689 13.2871 9.17748 13.2419 9.35106 13.2419C9.52464 13.2419 9.69524 13.2871 9.84606 13.373L13.4891 15.448L12.6401 11.344C12.6051 11.1738 12.6151 10.9973 12.6692 10.8322C12.7232 10.667 12.8193 10.5187 12.9481 10.402L16.0481 7.58L11.8801 7.119C11.7073 7.09967 11.5426 7.03565 11.4021 6.93324C11.2616 6.83083 11.1503 6.69357 11.0791 6.535L9.35106 2.714L7.62506 6.535C7.47906 6.857 7.17506 7.078 6.82406 7.119L2.65606 7.58L5.75606 10.402C5.88778 10.5216 5.98521 10.6742 6.0383 10.844C6.09138 11.0138 6.09821 11.1947 6.05806 11.368Z" fill="#FCFCFC"/>
</svg>
