<svg width="17" height="20" viewBox="0 0 17 20" fill="none" xmlns="http://www.w3.org/2000/svg">
<path d="M0.193 1.72602C0.234164 1.25336 0.45159 0.813475 0.802099 0.493719C1.15261 0.173963 1.61056 -0.00226906 2.085 2.2062e-05C2.535 2.2062e-05 2.951 0.156022 3.278 0.417022C3.62803 0.146743 4.05777 9.68813e-05 4.5 2.2062e-05C4.96 2.2062e-05 5.384 0.155022 5.722 0.417022C6.06044 0.145966 6.4814 -0.00117773 6.915 2.2062e-05C7.891 2.2062e-05 8.722 0.737022 8.807 1.72602C8.891 2.70102 9 4.20902 9 5.50002C9.0001 6.27547 8.79981 7.03778 8.41856 7.71303C8.0373 8.38828 7.48803 8.95355 6.824 9.35402C6.602 9.48802 6.544 9.65402 6.55 9.74002C6.677 11.674 7 16.692 7 17.497C7 18.1601 6.73661 18.7959 6.26777 19.2648C5.79893 19.7336 5.16304 19.997 4.5 19.997C3.83696 19.997 3.20107 19.7336 2.73223 19.2648C2.26339 18.7959 2 18.1601 2 17.497C2 16.692 2.323 11.674 2.45 9.74002C2.455 9.65302 2.398 9.48802 2.176 9.35402C1.51197 8.95355 0.962696 8.38828 0.581445 7.71303C0.200194 7.03778 -9.59214e-05 6.27547 3.4462e-08 5.50002C3.4462e-08 4.21002 0.109 2.70102 0.193 1.72602ZM6.5 5.25002C6.5 5.44893 6.42098 5.6397 6.28033 5.78035C6.13968 5.921 5.94891 6.00002 5.75 6.00002C5.55109 6.00002 5.36032 5.921 5.21967 5.78035C5.07902 5.6397 5 5.44893 5 5.25002V2.00002C5 1.86741 4.94732 1.74024 4.85355 1.64647C4.75979 1.5527 4.63261 1.50002 4.5 1.50002C4.36739 1.50002 4.24021 1.5527 4.14645 1.64647C4.05268 1.74024 4 1.86741 4 2.00002V5.25002C4 5.44893 3.92098 5.6397 3.78033 5.78035C3.63968 5.921 3.44891 6.00002 3.25 6.00002C3.05109 6.00002 2.86032 5.921 2.71967 5.78035C2.57902 5.6397 2.5 5.44893 2.5 5.25002V1.91502C2.5 1.80496 2.45628 1.6994 2.37845 1.62157C2.30062 1.54375 2.19506 1.50002 2.085 1.50002C1.98617 1.4983 1.89033 1.53389 1.81657 1.59968C1.7428 1.66547 1.69654 1.75664 1.687 1.85502C1.604 2.82002 1.5 4.27502 1.5 5.50002C1.5 6.59002 2.08 7.54402 2.952 8.07002C3.497 8.40002 3.999 9.03002 3.947 9.83802C3.817 11.818 3.5 16.756 3.5 17.498C3.5 17.7632 3.60536 18.0176 3.79289 18.2051C3.98043 18.3927 4.23478 18.498 4.5 18.498C4.76522 18.498 5.01957 18.3927 5.20711 18.2051C5.39464 18.0176 5.5 17.7632 5.5 17.498C5.5 16.756 5.183 11.818 5.053 9.83802C5.001 9.03002 5.503 8.40002 6.048 8.07002C6.49103 7.80314 6.85754 7.42626 7.11195 6.97596C7.36637 6.52565 7.50004 6.01723 7.5 5.50002C7.5 4.27602 7.396 2.82002 7.313 1.85502C7.30346 1.75664 7.2572 1.66547 7.18343 1.59968C7.10967 1.53389 7.01383 1.4983 6.915 1.50002C6.80493 1.50002 6.69938 1.54375 6.62155 1.62157C6.54372 1.6994 6.5 1.80496 6.5 1.91502V5.25002ZM10 5.75002C10 4.22503 10.6058 2.76249 11.6841 1.68416C12.7625 0.605824 14.225 2.2062e-05 15.75 2.2062e-05C15.9489 2.2062e-05 16.1397 0.0790396 16.2803 0.219692C16.421 0.360344 16.5 0.55111 16.5 0.750022V9.25002C16.5 9.56802 16.606 11.145 16.725 12.892L16.73 12.975C16.86 14.883 17 16.958 17 17.497C17 18.1601 16.7366 18.7959 16.2678 19.2648C15.7989 19.7336 15.163 19.997 14.5 19.997C13.837 19.997 13.2011 19.7336 12.7322 19.2648C12.2634 18.7959 12 18.1601 12 17.497C12 16.983 12.128 14.886 12.252 12.963C12.314 11.992 12.377 11.051 12.424 10.353L12.447 10H11.75C11.5202 10 11.2926 9.95476 11.0803 9.86681C10.868 9.77886 10.6751 9.64996 10.5126 9.48746C10.3501 9.32496 10.2212 9.13204 10.1332 8.91972C10.0453 8.7074 10 8.47984 10 8.25002V5.75002ZM13.998 9.30202L13.977 9.61602C13.8982 10.7639 13.8218 11.9119 13.748 13.06C13.622 15.02 13.5 17.046 13.5 17.497C13.5 17.7622 13.6054 18.0166 13.7929 18.2041C13.9804 18.3917 14.2348 18.497 14.5 18.497C14.7652 18.497 15.0196 18.3917 15.2071 18.2041C15.3946 18.0166 15.5 17.7622 15.5 17.497C15.5 17.017 15.362 14.971 15.228 12.993L15.221 12.889C15.108 11.23 15 9.62702 15 9.25002V1.56602C14.0184 1.742 13.13 2.25753 12.4902 3.02241C11.8503 3.78729 11.4998 4.75281 11.5 5.75002V8.25002C11.5 8.38802 11.612 8.50002 11.75 8.50002H13.25C13.3529 8.50005 13.4546 8.52123 13.5489 8.56225C13.6432 8.60328 13.7281 8.66326 13.7983 8.73848C13.8684 8.8137 13.9224 8.90254 13.9567 8.99949C13.9911 9.09644 14.0051 9.19941 13.998 9.30202Z" fill="#FCFCFC"/>
</svg>
