<svg width="20" height="20" viewBox="0 0 20 20" fill="none" xmlns="http://www.w3.org/2000/svg">
<path d="M18.625 7.38825L17.225 5.98825L17.975 5.21324L14.775 2.01325L14 2.76325L12.575 1.33825L13.325 0.563245C13.7083 0.179912 14.1833 -0.00775469 14.75 0.000245315C15.3167 0.00824532 15.7917 0.204245 16.175 0.588245L19.4 3.81325C19.7833 4.19658 19.975 4.66724 19.975 5.22524C19.975 5.78325 19.7833 6.25425 19.4 6.63825L18.625 7.38825ZM6.625 19.4132C6.24167 19.7966 5.771 19.9882 5.213 19.9882C4.655 19.9882 4.184 19.7966 3.8 19.4132L0.575 16.1882C0.191666 15.8049 0 15.3342 0 14.7762C0 14.2182 0.191666 13.7472 0.575 13.3632L1.325 12.6132L2.75 14.0382L1.975 14.7882L5.2 18.0132L5.95 17.2382L7.375 18.6632L6.625 19.4132ZM16.55 11.0132L17.975 9.58825L10.4 2.01325L8.975 3.43825L16.55 11.0132ZM9.55 18.0132L10.975 16.5632L3.425 9.01325L1.975 10.4382L9.55 18.0132ZM9.4 12.1632L12.15 9.43825L10.55 7.83824L7.825 10.5882L9.4 12.1632ZM10.975 19.4132C10.5917 19.7966 10.1167 19.9882 9.55 19.9882C8.98333 19.9882 8.50833 19.7966 8.125 19.4132L0.575 11.8632C0.191666 11.4799 0 11.0049 0 10.4382C0 9.87158 0.191666 9.39658 0.575 9.01325L2 7.58824C2.38333 7.20491 2.854 7.01325 3.412 7.01325C3.97 7.01325 4.441 7.20491 4.825 7.58824L6.4 9.16325L9.15 6.41324L7.575 4.86325C7.19167 4.47991 7 4.00491 7 3.43825C7 2.87158 7.19167 2.39658 7.575 2.01325L9 0.588245C9.38333 0.204912 9.85433 0.0132453 10.413 0.0132453C10.9717 0.0132453 11.4423 0.204912 11.825 0.588245L19.4 8.16325C19.7833 8.54658 19.975 9.01725 19.975 9.57525C19.975 10.1332 19.7833 10.6042 19.4 10.9882L17.975 12.4132C17.5917 12.7966 17.1167 12.9882 16.55 12.9882C15.9833 12.9882 15.5083 12.7966 15.125 12.4132L13.575 10.8382L10.825 13.5882L12.4 15.1632C12.7833 15.5466 12.975 16.0176 12.975 16.5762C12.975 17.1349 12.7833 17.6056 12.4 17.9882L10.975 19.4132Z" fill="#FCFCFC"/>
</svg>
