<svg width="22" height="16" viewBox="0 0 22 16" fill="none" xmlns="http://www.w3.org/2000/svg">
<path d="M5.5 12C6.28333 12 7.046 12.0877 7.788 12.263C8.53 12.4383 9.26733 12.7007 10 13.05V3.2C9.31667 2.8 8.59167 2.5 7.825 2.3C7.05833 2.1 6.28333 2 5.5 2C4.9 2 4.304 2.05833 3.712 2.175C3.12 2.29167 2.54933 2.46667 2 2.7V12.6C2.58333 12.4 3.16267 12.25 3.738 12.15C4.31333 12.05 4.90067 12 5.5 12ZM12 13.05C12.7333 12.7 13.471 12.4377 14.213 12.263C14.955 12.0883 15.7173 12.0007 16.5 12C17.1 12 17.6877 12.05 18.263 12.15C18.8383 12.25 19.4173 12.4 20 12.6V2.7C19.45 2.46667 18.879 2.29167 18.287 2.175C17.695 2.05833 17.0993 2 16.5 2C15.7167 2 14.9417 2.1 14.175 2.3C13.4083 2.5 12.6833 2.8 12 3.2V13.05ZM11 15.475C10.7667 15.475 10.5457 15.446 10.337 15.388C10.1283 15.33 9.93267 15.2507 9.75 15.15C9.1 14.7667 8.41667 14.4793 7.7 14.288C6.98333 14.0967 6.25 14.0007 5.5 14C4.8 14 4.11267 14.0917 3.438 14.275C2.76333 14.4583 2.11733 14.7167 1.5 15.05C1.15 15.2333 0.812667 15.225 0.488 15.025C0.163333 14.825 0.000666667 14.5333 0 14.15V2.1C0 1.91667 0.046 1.74167 0.138 1.575C0.23 1.40833 0.367333 1.28333 0.55 1.2C1.31667 0.8 2.11667 0.5 2.95 0.3C3.78333 0.1 4.63333 0 5.5 0C6.46667 0 7.41267 0.125 8.338 0.375C9.26333 0.625 10.1507 1 11 1.5C11.85 1 12.7377 0.625 13.663 0.375C14.5883 0.125 15.534 0 16.5 0C17.3667 0 18.2167 0.1 19.05 0.3C19.8833 0.5 20.6833 0.8 21.45 1.2C21.6333 1.28333 21.771 1.40833 21.863 1.575C21.955 1.74167 22.0007 1.91667 22 2.1V14.15C22 14.5333 21.8377 14.825 21.513 15.025C21.1883 15.225 20.8507 15.2333 20.5 15.05C19.8833 14.7167 19.2377 14.4583 18.563 14.275C17.8883 14.0917 17.2007 14 16.5 14C15.75 14 15.0167 14.096 14.3 14.288C13.5833 14.48 12.9 14.7673 12.25 15.15C12.0667 15.25 11.871 15.3293 11.663 15.388C11.455 15.4467 11.234 15.4757 11 15.475ZM13 4.775C13 4.625 13.0543 4.471 13.163 4.313C13.2717 4.155 13.3923 4.05067 13.525 4C14.0083 3.83333 14.4917 3.70833 14.975 3.625C15.4583 3.54167 15.9667 3.5 16.5 3.5C16.8333 3.5 17.1627 3.521 17.488 3.563C17.8133 3.605 18.134 3.659 18.45 3.725C18.6 3.75833 18.7293 3.84167 18.838 3.975C18.9467 4.10833 19.0007 4.25833 19 4.425C19 4.70833 18.9083 4.91667 18.725 5.05C18.5417 5.18333 18.3083 5.21667 18.025 5.15C17.7917 5.1 17.546 5.06267 17.288 5.038C17.03 5.01333 16.7673 5.00067 16.5 5C16.0667 5 15.6417 5.04167 15.225 5.125C14.8083 5.20833 14.4083 5.31667 14.025 5.45C13.725 5.56667 13.4793 5.55833 13.288 5.425C13.0967 5.29167 13.0007 5.075 13 4.775ZM13 10.275C13 10.125 13.0543 9.971 13.163 9.813C13.2717 9.655 13.3923 9.55067 13.525 9.5C14.0083 9.33333 14.4917 9.20833 14.975 9.125C15.4583 9.04167 15.9667 9 16.5 9C16.8333 9 17.1627 9.021 17.488 9.063C17.8133 9.105 18.134 9.159 18.45 9.225C18.6 9.25833 18.7293 9.34167 18.838 9.475C18.9467 9.60833 19.0007 9.75833 19 9.925C19 10.2083 18.9083 10.4167 18.725 10.55C18.5417 10.6833 18.3083 10.7167 18.025 10.65C17.7917 10.6 17.546 10.5627 17.288 10.538C17.03 10.5133 16.7673 10.5007 16.5 10.5C16.0667 10.5 15.6417 10.5377 15.225 10.613C14.8083 10.6883 14.4083 10.7923 14.025 10.925C13.725 11.0417 13.4793 11.0377 13.288 10.913C13.0967 10.7883 13.0007 10.5757 13 10.275ZM13 7.525C13 7.375 13.0543 7.221 13.163 7.063C13.2717 6.905 13.3923 6.80067 13.525 6.75C14.0083 6.58333 14.4917 6.45833 14.975 6.375C15.4583 6.29167 15.9667 6.25 16.5 6.25C16.8333 6.25 17.1627 6.271 17.488 6.313C17.8133 6.355 18.134 6.409 18.45 6.475C18.6 6.50833 18.7293 6.59167 18.838 6.725C18.9467 6.85833 19.0007 7.00833 19 7.175C19 7.45833 18.9083 7.66667 18.725 7.8C18.5417 7.93333 18.3083 7.96667 18.025 7.9C17.7917 7.85 17.546 7.81267 17.288 7.788C17.03 7.76333 16.7673 7.75067 16.5 7.75C16.0667 7.75 15.6417 7.79167 15.225 7.875C14.8083 7.95833 14.4083 8.06667 14.025 8.2C13.725 8.31667 13.4793 8.30833 13.288 8.175C13.0967 8.04167 13.0007 7.825 13 7.525Z" fill="#FCFCFC"/>
</svg>
