<svg width="145" height="188" viewBox="0 0 145 188" fill="none" xmlns="http://www.w3.org/2000/svg">
<path d="M129 167.5C129 178.822 110.42 188 87.5 188C64.5802 188 46 178.822 46 167.5C46 156.178 64.5802 147 87.5 147C110.42 147 129 156.178 129 167.5Z" fill="#6E7CC5"/>
<path d="M71.6906 142.491C69.8328 144.906 66.5937 145.989 63.545 145.835C60.4964 145.68 57.6026 144.454 54.947 142.943C48.9926 139.575 43.8362 134.827 39.1561 129.889C34.5593 125.045 30.4866 119.524 28.2954 113.157C28.1763 112.812 28.0572 111.848 27.6166 111.717C27.5332 111.694 27.4499 111.741 27.3903 111.801C26.9735 112.3 26.7592 113.157 26.5329 113.752C26.0446 115.002 25.6278 116.287 25.3063 117.596C24.6632 120.214 24.3774 122.915 24.5322 125.605C24.568 126.283 24.6394 126.961 24.7347 127.64C24.7823 128.008 24.949 128.58 24.4727 128.746C24.2941 128.806 24.1035 128.794 23.9249 128.758C22.9484 128.58 22.1386 128.127 21.2573 127.687C20.2094 127.175 19.1733 126.652 18.1611 126.081C16.22 124.998 14.3265 123.784 12.6474 122.308C9.94411 119.94 8.18163 117.406 6.37151 114.288C6.32387 114.24 6.27624 114.169 6.21669 114.133C6.00234 114.014 5.78798 114.288 5.70462 114.526C1.51277 126.009 4.40658 140.908 11.7304 150.488C19.7449 160.96 32.9874 167.588 46.2417 167.159C53.1964 166.933 60.163 164.494 65.1527 159.543C67.5345 157.187 69.9162 154.902 72.024 152.296C72.2979 151.951 72.5837 151.594 72.7147 151.178C72.8934 150.642 72.81 150.047 72.7266 149.488C72.3813 147.167 72.0359 144.835 71.6906 142.491Z" fill="#1D1C42"/>
<mask id="mask0_399_2195" style="mask-type:luminance" maskUnits="userSpaceOnUse" x="3" y="111" width="70" height="57">
<path d="M71.6906 142.491C69.8328 144.906 66.5937 145.989 63.545 145.835C60.4964 145.68 57.6026 144.454 54.947 142.943C48.9926 139.575 43.8362 134.827 39.1561 129.889C34.5593 125.045 30.4866 119.524 28.2954 113.157C28.1763 112.812 28.0572 111.848 27.6166 111.717C27.5332 111.694 27.4499 111.741 27.3903 111.801C26.9735 112.3 26.7592 113.157 26.5329 113.752C26.0446 115.002 25.6278 116.287 25.3063 117.596C24.6632 120.214 24.3774 122.915 24.5322 125.605C24.568 126.283 24.6394 126.961 24.7347 127.64C24.7823 128.008 24.949 128.58 24.4727 128.746C24.2941 128.806 24.1035 128.794 23.9249 128.758C22.9484 128.58 22.1386 128.127 21.2573 127.687C20.2094 127.175 19.1733 126.652 18.1611 126.081C16.22 124.998 14.3265 123.784 12.6474 122.308C9.94411 119.94 8.18163 117.406 6.37151 114.288C6.32387 114.24 6.27624 114.169 6.21669 114.133C6.00234 114.014 5.78798 114.288 5.70462 114.526C1.51277 126.009 4.40658 140.908 11.7304 150.488C19.7449 160.96 32.9874 167.588 46.2417 167.159C53.1964 166.933 60.163 164.494 65.1527 159.543C67.5345 157.187 69.9162 154.902 72.024 152.296C72.2979 151.951 72.5837 151.594 72.7147 151.178C72.8934 150.642 72.81 150.047 72.7266 149.488C72.3813 147.167 72.0359 144.835 71.6906 142.491Z" fill="white"/>
</mask>
<g mask="url(#mask0_399_2195)">
<path d="M45.896 130.781C46.0032 130.198 38.6913 129.127 38.2149 129.079C32.0105 128.58 25.2821 131.114 20.34 134.791C17.0294 137.243 15.0049 141.11 14.0403 145.049C13.4925 147.31 13.3377 149.643 13.3496 151.963C13.3496 152.641 13.0995 157.509 13.814 157.77C13.814 157.77 0.333419 152.868 0.166698 152.213C-0.0238412 151.559 -2.38693e-05 97.6515 -2.38693e-05 97.6515L13.4925 93.1295L51.7789 99.734C51.7789 99.7459 45.896 130.769 45.896 130.781Z" fill="#FFE6D4"/>
</g>
<path d="M52.4459 138.457C52.4459 138.457 51.2669 147.596 52.4459 149.881C53.6248 152.154 56.6258 159.222 63.2827 152.273C69.9397 145.323 66.8911 141.408 66.8911 141.408L52.4459 138.457Z" fill="#F2ECE0"/>
<mask id="mask1_399_2195" style="mask-type:luminance" maskUnits="userSpaceOnUse" x="51" y="138" width="17" height="18">
<path d="M52.4459 138.457C52.4459 138.457 51.2669 147.596 52.4459 149.881C53.6248 152.154 56.6258 159.222 63.2827 152.273C69.9397 145.323 66.8911 141.408 66.8911 141.408L52.4459 138.457Z" fill="white"/>
</mask>
<g mask="url(#mask1_399_2195)">
<path d="M54.5298 153.379C54.2202 152.725 53.9701 152.046 53.7796 151.344C53.6843 150.987 53.5652 150.63 53.589 150.261C53.6247 149.893 53.6724 149.512 53.8748 149.167L53.9344 149.179C54.0654 149.547 54.1011 149.881 54.1845 150.226C54.244 150.559 54.2321 150.916 54.2559 151.261C54.3274 151.963 54.4345 152.665 54.5893 153.367L54.5298 153.379Z" fill="#2E2D47"/>
</g>
<mask id="mask2_399_2195" style="mask-type:luminance" maskUnits="userSpaceOnUse" x="51" y="138" width="17" height="18">
<path d="M52.4459 138.457C52.4459 138.457 51.2669 147.596 52.4459 149.881C53.6248 152.154 56.6258 159.222 63.2827 152.273C69.9397 145.323 66.8911 141.408 66.8911 141.408L52.4459 138.457Z" fill="white"/>
</mask>
<g mask="url(#mask2_399_2195)">
<path d="M57.6265 155.259C57.3169 154.605 57.0668 153.927 56.8762 153.225C56.781 152.868 56.6619 152.511 56.6857 152.142C56.7214 151.773 56.7691 151.392 56.9715 151.047L57.0311 151.059C57.162 151.428 57.1978 151.761 57.2811 152.106C57.3407 152.439 57.3288 152.796 57.3526 153.141C57.424 153.843 57.5312 154.545 57.686 155.248L57.6265 155.259Z" fill="#2E2D47"/>
</g>
<path d="M62.5322 156.378C62.5322 156.378 62.6513 165.541 64.128 169.682C64.8663 171.753 69.4631 174.323 73.9169 174.418C78.3708 174.514 82.6817 172.11 83.4796 171.205C85.0753 169.385 85.3016 162.114 85.3016 162.114L62.5322 156.378Z" fill="#1D1C42"/>
<mask id="mask3_399_2195" style="mask-type:luminance" maskUnits="userSpaceOnUse" x="62" y="156" width="24" height="19">
<path d="M62.5322 156.378C62.5322 156.378 62.6513 165.541 64.128 169.682C64.8663 171.753 69.4631 174.323 73.9169 174.418C78.3708 174.514 82.6817 172.11 83.4796 171.205C85.0753 169.385 85.3016 162.114 85.3016 162.114L62.5322 156.378Z" fill="white"/>
</mask>
<g mask="url(#mask3_399_2195)">
<path d="M63.6036 167.183C63.6036 167.183 66.0091 170.8 74.2142 171.812C77.501 172.217 81.6809 170.515 85.1106 168.194C94.3637 161.947 84.4993 175.5 84.4993 175.5L74.9764 177.274L65.1993 174.418L62.8652 167.992L63.6036 167.183Z" fill="#EFE9DD"/>
</g>
<path d="M114.037 156.378C114.037 156.378 113.561 169.218 112.084 173.347C110.607 177.489 95.0547 176.608 93.459 174.787C91.8632 172.967 91.2559 162.102 91.2559 162.102L114.037 156.378Z" fill="#1D1C42"/>
<mask id="mask4_399_2195" style="mask-type:luminance" maskUnits="userSpaceOnUse" x="91" y="156" width="24" height="21">
<path d="M114.037 156.378C114.037 156.378 113.561 169.218 112.084 173.347C110.607 177.489 95.0547 176.608 93.459 174.787C91.8632 172.967 91.2559 162.102 91.2559 162.102L114.037 156.378Z" fill="white"/>
</mask>
<g mask="url(#mask4_399_2195)">
<path d="M112.965 170.753C112.965 170.753 101.688 176.227 91.4581 171.764C81.2166 167.314 94.4995 177.5 94.4995 177.5L111.381 177.988L113.715 171.562L112.965 170.753Z" fill="#EFE9DD"/>
</g>
<path d="M123.457 131.424C122.242 121.856 106.987 111.67 106.987 111.67L101.569 108.933H88.4219H75.2866L69.5585 112.788C67.8318 113.252 66.7004 115.085 65.581 116.335C64.2234 117.846 62.7825 119.25 61.4844 120.821C57.7451 125.331 54.6012 130.543 52.8268 136.148C52.4577 137.314 52.148 139.718 52.3624 140.777C52.5887 141.86 58.7097 145.977 63.3184 146.061C62.6634 146.025 62.1751 159.674 62.8301 159.71C62.8301 159.71 75.7272 167.255 88.4338 167.1C101.14 167.255 114.037 159.71 114.037 159.71C115.252 155.152 112.513 136.874 112.513 136.874C120.111 136.743 123.457 131.424 123.457 131.424Z" fill="url(#paint0_linear_399_2195)"/>
<path d="M88.5883 132.59C88.2073 132.59 88.0882 132.554 87.7071 132.554C86.2542 132.519 81.7766 132.197 80.0498 131.436C77.68 130.4 76.0485 128.401 73.1547 126.414C71.8328 125.509 70.5943 124.724 68.9986 124.248C68.6175 124.129 68.2602 123.974 67.8792 123.879C60.2338 121.987 55.1488 122.546 48.6943 118.131C44.5501 115.287 41.0489 111.741 38.036 107.588C34.8683 103.233 40.0605 102.959 41.6324 99.9244C41.9659 99.2818 41.3585 99.0676 40.775 98.544C38.2742 96.3187 34.6659 95.212 32.7128 92.4393C31.1171 90.1902 31.8435 89.9879 33.7132 86.7868C34.916 84.7281 35.7496 82.479 36.4284 80.2061C37.7026 75.9578 38.4171 71.5429 39.608 67.2589C40.5488 63.8912 42.0254 60.6068 42.6923 57.1795C44.0142 50.3489 42.597 43.2327 42.3112 36.3664C42.0135 29.036 41.8468 21.777 42.4303 14.4466C42.8233 9.5438 43.2758 2.11819 48.8729 0.237985C51.731 -0.725916 54.8511 1.70169 56.8875 3.39149C62.3178 7.90159 66.6049 13.8873 70.5467 19.6945C73.2976 23.7405 75.6317 28.0245 78.0373 32.2847C78.4302 32.9749 79.4425 32.4513 80.0379 32.368C85.3135 31.5588 89.9936 31.2375 94.495 31.9634C97.6627 32.4632 97.8057 32.8797 98.6035 32.5108C98.6869 32.4632 98.7464 32.3799 98.7941 32.2966C101.2 28.0364 103.522 23.7524 106.285 19.7064C110.226 13.9111 114.514 7.91349 119.944 3.40339C121.98 1.71359 125.1 -0.714016 127.958 0.249885C133.555 2.13009 134.008 9.5676 134.401 14.4585C134.996 21.7889 134.83 29.0479 134.52 36.3783C134.234 43.2446 132.817 50.3727 134.139 57.1914C134.806 60.6187 136.283 63.9031 137.223 67.2708C138.414 71.5548 139.129 75.9697 140.403 80.218C141.094 82.4909 141.915 84.74 143.118 86.7987C144.988 89.9998 145.714 90.2021 144.118 92.4512C142.154 95.212 138.545 96.3306 136.056 98.5559C135.473 99.0676 134.865 99.2818 135.199 99.9363C136.771 102.983 141.963 103.245 138.795 107.6C135.782 111.753 132.281 115.287 128.137 118.143C121.694 122.57 116.598 123.189 108.952 125.081C108.571 125.176 107.023 125.331 106.642 125.45C103.022 126.533 100.128 130.769 96.9363 131.674C94.3283 132.4 91.3154 132.578 88.5883 132.59Z" fill="#1D1C42"/>
<path d="M131.758 142.503L123.113 129.329C122.458 128.33 122.743 126.997 123.732 126.354C123.732 126.354 128.412 123.296 128.412 123.284C130.401 121.987 132.485 124.177 133.592 125.64C134.354 126.652 135.128 127.651 135.843 128.687C136.855 130.15 137.855 131.709 138.689 133.28C139.249 134.327 139.88 135.375 140.213 136.529C140.404 137.195 140.475 137.933 140.309 138.611C140.106 139.432 139.547 139.968 138.856 140.42C138.141 140.884 137.439 141.348 136.724 141.812C136.057 142.241 135.402 142.681 134.735 143.11C133.747 143.764 132.401 143.49 131.758 142.503Z" fill="#FCB9DC"/>
<path d="M132.571 144.527L121.568 127.744L93.8452 145.893L104.848 162.676L132.571 144.527Z" fill="#FFDE34"/>
<path d="M118.813 136.291C118.372 137.124 117.848 137.838 117.336 138.564C116.634 139.004 115.955 139.468 115.252 139.908L111.096 142.622L106.94 145.335L104.868 146.692C103.998 146.87 103.129 147.06 102.2 147.156C102.653 146.346 103.177 145.621 103.689 144.895L105.761 143.538L109.917 140.825L114.073 138.112C114.764 137.659 115.466 137.219 116.145 136.743C117.003 136.565 117.872 136.374 118.813 136.291Z" fill="#FCBF0A"/>
<path d="M123.636 143.657C123.195 144.49 122.671 145.204 122.159 145.93C121.457 146.37 120.778 146.834 120.075 147.275L115.919 149.988L111.763 152.701L109.691 154.058C108.822 154.236 107.952 154.427 107.023 154.522C107.476 153.712 108 152.987 108.512 152.261L110.584 150.904L114.74 148.191L118.896 145.478C119.587 145.025 120.29 144.585 120.968 144.109C121.826 143.919 122.695 143.728 123.636 143.657Z" fill="#FCBF0A"/>
<path d="M134.576 143.225L123.573 126.442L120.316 128.574L131.319 145.357L134.576 143.225Z" fill="#C5C4C4"/>
<path d="M89.744 160.174C89.5892 159.865 89.4939 159.543 89.4463 159.222C89.4105 158.96 89.4105 158.687 89.4701 158.413C89.482 158.342 89.4939 158.282 89.5177 158.211L93.8763 145.882L98.2468 147.62C98.2468 147.62 99.2828 148.203 99.2233 149.119C99.1637 150.035 98.8541 152.094 98.8541 152.094C98.8541 152.094 98.6636 153.201 99.2233 154.046L99.521 154.51C100.069 155.355 101.164 155.616 101.164 155.616C101.164 155.616 103.177 156.164 104.046 156.473C104.904 156.783 105.023 157.973 105.023 157.973L104.868 162.673C104.499 162.649 104.13 162.626 103.76 162.59C102.855 162.53 101.938 162.459 101.033 162.399C99.8902 162.316 98.735 162.233 97.5918 162.15C96.5081 162.078 95.4244 161.995 94.3526 161.923C93.7215 161.876 93.1022 161.864 92.4711 161.816C91.8875 161.769 91.2683 161.709 90.7681 161.376C90.3275 161.079 89.9821 160.65 89.744 160.174Z" fill="#FFEDBF"/>
<mask id="mask5_399_2195" style="mask-type:luminance" maskUnits="userSpaceOnUse" x="89" y="145" width="17" height="18">
<path d="M89.744 160.174C89.5892 159.865 89.4939 159.543 89.4463 159.222C89.4105 158.96 89.4105 158.687 89.4701 158.413C89.482 158.342 89.4939 158.282 89.5177 158.211L93.8763 145.882L98.2468 147.62C98.2468 147.62 99.2828 148.203 99.2233 149.119C99.1637 150.035 98.8541 152.094 98.8541 152.094C98.8541 152.094 98.6636 153.201 99.2233 154.046L99.521 154.51C100.069 155.355 101.164 155.616 101.164 155.616C101.164 155.616 103.177 156.164 104.046 156.473C104.904 156.783 105.023 157.973 105.023 157.973L104.868 162.673C104.499 162.649 104.13 162.626 103.76 162.59C102.855 162.53 101.938 162.459 101.033 162.399C99.8902 162.316 98.735 162.233 97.5918 162.15C96.5081 162.078 95.4244 161.995 94.3526 161.923C93.7215 161.876 93.1022 161.864 92.4711 161.816C91.8875 161.769 91.2683 161.709 90.7681 161.376C90.3275 161.079 89.9821 160.65 89.744 160.174Z" fill="white"/>
</mask>
<g mask="url(#mask5_399_2195)">
<path d="M89.923 155.962C89.923 155.962 94.7936 157.128 94.222 162.518C93.6504 167.909 88.7202 162.09 88.7202 162.09L88.0771 156.104L89.923 155.962Z" fill="#616160"/>
</g>
<path d="M88.2431 103.185L82.2054 102.423C82.2054 102.423 77.954 90.571 73.1668 90.4163C68.3795 90.2616 52.8982 92.5345 52.8625 92.5464C50.3617 92.9153 48.3134 99.0676 48.23 100.805C48.0037 105.851 50.707 111.003 54.6369 113.824C59.0074 116.953 65.1641 119.143 70.5469 120.107C71.2614 120.238 71.9521 121.428 72.3451 121.951C74.5244 124.784 78.4542 126.533 81.8006 127.532C83.8846 128.151 86.0639 128.437 88.2312 128.556C91.2441 128.711 94.257 127.973 96.996 126.771C99.604 125.617 102.557 124.165 104.225 121.761C104.665 121.13 105.082 120.273 105.928 120.119C111.31 119.155 117.467 116.965 121.838 113.836C125.779 111.015 128.483 105.863 128.244 100.817C128.161 99.0795 126.125 92.9272 123.612 92.5583C123.576 92.5583 108.095 90.2854 103.308 90.4282C98.5084 90.5829 94.2689 102.435 94.2689 102.435L88.2431 103.185Z" fill="url(#paint1_linear_399_2195)"/>
<path d="M114.276 61.6183C110.965 61.6064 107.536 62.6298 104.844 64.5576C102.296 66.3902 99.7116 69.6151 99.6639 72.8757C99.6163 76.0292 99.5449 82.3243 99.5449 82.3243C99.5449 82.3243 99.5091 85.4778 99.4972 87.0486C99.4615 89.619 100.271 91.6539 101.831 93.665C103.522 95.8427 105.833 97.473 108.405 98.4726C115.943 101.412 122.802 96.0569 122.802 96.0569C124.803 94.498 126.173 91.7729 126.911 89.3929C127.816 86.5131 127.899 83.4548 128.054 80.456C128.126 79.0875 128.221 77.7071 128.233 76.3386C128.257 74.4465 128.34 72.9352 127.614 71.1621C127.233 70.2577 126.78 69.3771 126.256 68.5441C124.887 66.3426 123.029 64.4148 120.718 63.1891C118.742 62.13 116.515 61.6302 114.276 61.6183Z" fill="white"/>
<path d="M107.071 68.9844C107.106 68.9487 107.63 69.9126 107.678 69.984C108.512 71.2216 108.905 72.3997 108.536 73.6611C108.226 74.7321 107.511 75.4104 106.583 75.9697C105.666 76.529 103.308 76.8979 103.308 76.9812V83.7761C103.308 83.7761 103.951 89.4167 109.583 89.4167C115.454 89.4167 117.193 84.8114 117.193 84.8114L118.229 74.7916C118.229 74.7916 117.943 69.2105 112.06 68.0562C112.084 68.0681 108.405 67.604 107.071 68.9844Z" fill="#0A100E"/>
<path d="M62.2224 61.6183C65.533 61.6064 68.9627 62.6298 71.6541 64.5576C74.2025 66.3902 76.7867 69.6151 76.8343 72.8757C76.882 76.0292 76.9534 82.3243 76.9534 82.3243C76.9534 82.3243 76.9892 85.4778 77.0011 87.0486C77.0368 89.619 76.227 91.6539 74.667 93.665C72.9759 95.8427 70.6657 97.473 68.0934 98.4726C60.5552 101.412 53.6958 96.0569 53.6958 96.0569C51.6951 94.498 50.3256 91.7729 49.5873 89.3929C48.6823 86.5131 48.5989 83.4548 48.4441 80.456C48.3726 79.0875 48.2774 77.7071 48.2654 76.3386C48.2416 74.4465 48.1583 72.9352 48.8847 71.1621C49.2658 70.2577 49.7183 69.3771 50.2423 68.5441C51.6118 66.3426 53.4695 64.4148 55.7798 63.1891C57.7567 62.13 59.9836 61.6302 62.2224 61.6183Z" fill="white"/>
<path d="M60.4006 69.8174C60.4363 69.7698 61.1389 70.6147 61.1985 70.6861C62.2584 71.7333 62.8776 72.8162 62.7704 74.1252C62.6752 75.2319 62.1155 76.0411 61.3176 76.767C60.5197 77.4929 58.2928 78.3259 58.3166 78.4092L59.6623 85.0732C59.6623 85.0732 61.4128 90.4758 66.9266 89.3691C72.6904 88.2148 73.4763 83.3596 73.4763 83.3596L72.5117 73.3398C72.5117 73.3398 71.1303 67.9253 65.1403 67.9491C65.1284 67.9253 61.4248 68.199 60.4006 69.8174Z" fill="#0A100E"/>
<path d="M88.1956 109.635C87.4454 109.516 86.6594 109.325 85.9687 108.992C84.3849 108.231 83.0868 106.767 81.9555 105.458C81.4315 104.851 80.9195 104.232 80.4312 103.59C79.9429 102.959 79.4428 102.245 79.8358 101.424C80.7765 99.4722 83.194 99.0914 85.0994 98.9367C86.1235 98.8534 87.1834 98.8177 88.2195 98.8891C89.2555 98.8177 90.2797 98.8534 91.3038 98.9367C93.2092 99.0914 95.6267 99.4841 96.5674 101.424C96.9604 102.245 96.4722 102.959 95.972 103.59C95.4838 104.22 94.9717 104.851 94.4477 105.458C93.3164 106.767 92.0183 108.231 90.4345 108.992C89.7319 109.325 88.9459 109.528 88.1956 109.635Z" fill="#0A100E"/>
<path opacity="0.8" d="M90.1849 102.019C91.7502 102.019 93.0191 101.555 93.0191 100.984C93.0191 100.412 91.7502 99.9482 90.1849 99.9482C88.6195 99.9482 87.3506 100.412 87.3506 100.984C87.3506 101.555 88.6195 102.019 90.1849 102.019Z" fill="#575756"/>
<path d="M102.458 36.2699C102.4 36.5013 107.019 38.0746 107.366 38.2018C109.438 38.919 111.534 39.59 113.49 40.5849C115.4 41.5566 116.986 42.9101 118.607 44.2752C120.239 45.6403 121.988 46.8549 123.574 48.2778C123.782 48.4629 125.136 44.0323 125.241 43.5001C126.294 38.1787 126.734 32.7762 126.85 27.3623C126.954 22.411 127.162 19.3801 125.681 14.6024C125.368 13.5959 124.835 12.3812 123.77 11.9763C121.629 11.1666 119.661 12.5779 118.179 13.9892C112.819 19.0562 109.161 25.6154 105.236 31.7698C104.298 33.2274 103.106 34.6735 102.458 36.2699Z" fill="#F5BFD9"/>
<path d="M73.9114 36.4666C73.6683 35.865 62.8208 40.6543 61.6632 41.3831C58.468 43.3844 55.9327 46.1724 53.1427 48.6712C52.9343 48.8563 51.4293 44.0438 51.3135 43.5117C50.26 38.1903 49.8201 32.7878 49.7044 27.3738C49.6002 22.4226 49.3918 19.3917 50.8736 14.6139C51.1862 13.6075 51.7187 12.3928 52.7838 11.9879C54.2309 11.4442 55.8516 12.3581 56.8935 13.2373C64.7657 19.8544 70.1721 27.2929 73.9114 36.4666Z" fill="#F5BFD9"/>
<path d="M78.2649 56.491C78.3168 55.4868 74.7486 54.4867 70.2952 54.2572C65.8418 54.0277 62.1896 54.6558 62.1378 55.66C62.086 56.6642 65.6541 57.6644 70.1075 57.8938C74.5609 58.1233 78.2131 57.4953 78.2649 56.491Z" fill="#5B68AE"/>
<path d="M105.632 57.8899C110.087 57.6951 113.663 56.7229 113.619 55.7184C113.575 54.7139 109.928 54.0574 105.473 54.2521C101.018 54.4468 97.4429 55.419 97.4868 56.4236C97.5308 57.4281 101.178 58.0846 105.632 57.8899Z" fill="#5B68AE"/>
<defs>
<linearGradient id="paint0_linear_399_2195" x1="43.1845" y1="78.3895" x2="148.202" y2="95.5773" gradientUnits="userSpaceOnUse">
<stop offset="0.457518" stop-color="#FF3F3E"/>
<stop offset="1" stop-color="#F68484"/>
</linearGradient>
<linearGradient id="paint1_linear_399_2195" x1="88.2485" y1="128.569" x2="88.218" y2="83.1142" gradientUnits="userSpaceOnUse">
<stop stop-color="#F0E8DB"/>
<stop offset="0.504808" stop-color="#FFF5D8"/>
<stop offset="1" stop-color="#FFCFD0"/>
</linearGradient>
</defs>
</svg>
