<svg width="145" height="179" viewBox="0 0 145 179" fill="none" xmlns="http://www.w3.org/2000/svg">
<path d="M71.6901 142.491C69.8323 144.907 66.5932 145.989 63.5446 145.835C60.4959 145.68 57.6021 144.454 54.9465 142.943C48.9922 139.575 43.8357 134.827 39.1556 129.889C34.5588 125.045 30.4861 119.524 28.2949 113.157C28.1758 112.812 28.0567 111.848 27.6161 111.717C27.5327 111.694 27.4494 111.741 27.3898 111.801C26.973 112.301 26.7587 113.157 26.5324 113.752C26.0441 115.002 25.6273 116.287 25.3058 117.596C24.6627 120.214 24.3769 122.915 24.5317 125.605C24.5675 126.283 24.6389 126.961 24.7342 127.64C24.7818 128.009 24.9485 128.58 24.4722 128.746C24.2936 128.806 24.103 128.794 23.9244 128.758C22.9479 128.58 22.1381 128.128 21.2569 127.687C20.2089 127.176 19.1728 126.652 18.1606 126.081C16.2195 124.998 14.326 123.784 12.6469 122.308C9.94362 119.94 8.18114 117.406 6.37102 114.288C6.32338 114.24 6.27575 114.169 6.21621 114.133C6.00185 114.014 5.78749 114.288 5.70413 114.526C1.51228 126.009 4.40609 140.908 11.7299 150.488C19.7445 160.96 32.9869 167.588 46.2413 167.16C53.1959 166.934 60.1625 164.494 65.1522 159.544C67.534 157.187 69.9157 154.903 72.0235 152.296C72.2974 151.951 72.5832 151.594 72.7142 151.178C72.8929 150.642 72.8095 150.047 72.7261 149.488C72.3808 147.168 72.0354 144.835 71.6901 142.491Z" fill="#1D1C42"/>
<mask id="mask0_273_722" style="mask-type:luminance" maskUnits="userSpaceOnUse" x="3" y="111" width="70" height="57">
<path d="M71.6901 142.491C69.8323 144.907 66.5932 145.989 63.5446 145.835C60.4959 145.68 57.6021 144.454 54.9465 142.943C48.9922 139.575 43.8357 134.827 39.1556 129.889C34.5588 125.045 30.4861 119.524 28.2949 113.157C28.1758 112.812 28.0567 111.848 27.6161 111.717C27.5327 111.694 27.4494 111.741 27.3898 111.801C26.973 112.301 26.7587 113.157 26.5324 113.752C26.0441 115.002 25.6273 116.287 25.3058 117.596C24.6627 120.214 24.3769 122.915 24.5317 125.605C24.5675 126.283 24.6389 126.961 24.7342 127.64C24.7818 128.009 24.9485 128.58 24.4722 128.746C24.2936 128.806 24.103 128.794 23.9244 128.758C22.9479 128.58 22.1381 128.128 21.2569 127.687C20.2089 127.176 19.1728 126.652 18.1606 126.081C16.2195 124.998 14.326 123.784 12.6469 122.308C9.94362 119.94 8.18114 117.406 6.37102 114.288C6.32338 114.24 6.27575 114.169 6.21621 114.133C6.00185 114.014 5.78749 114.288 5.70413 114.526C1.51228 126.009 4.40609 140.908 11.7299 150.488C19.7445 160.96 32.9869 167.588 46.2413 167.16C53.1959 166.934 60.1625 164.494 65.1522 159.544C67.534 157.187 69.9157 154.903 72.0235 152.296C72.2974 151.951 72.5832 151.594 72.7142 151.178C72.8929 150.642 72.8095 150.047 72.7261 149.488C72.3808 147.168 72.0354 144.835 71.6901 142.491Z" fill="white"/>
</mask>
<g mask="url(#mask0_273_722)">
<path d="M45.896 130.781C46.0032 130.198 38.6913 129.127 38.2149 129.08C32.0105 128.58 25.2821 131.114 20.34 134.792C17.0294 137.243 15.0049 141.11 14.0403 145.049C13.4925 147.31 13.3377 149.643 13.3496 151.963C13.3496 152.642 13.0995 157.509 13.814 157.771C13.814 157.771 0.333419 152.868 0.166698 152.213C-0.0238412 151.559 -2.38693e-05 97.6516 -2.38693e-05 97.6516L13.4925 93.1296L51.7789 99.7341C51.7789 99.746 45.896 130.769 45.896 130.781Z" fill="#FFE6D4"/>
</g>
<path d="M52.4459 138.457C52.4459 138.457 51.2669 147.596 52.4459 149.881C53.6248 152.153 56.6258 159.222 63.2827 152.272C69.9397 145.323 66.8911 141.408 66.8911 141.408L52.4459 138.457Z" fill="#F2ECE0"/>
<mask id="mask1_273_722" style="mask-type:luminance" maskUnits="userSpaceOnUse" x="51" y="138" width="17" height="18">
<path d="M52.4459 138.457C52.4459 138.457 51.2669 147.596 52.4459 149.881C53.6248 152.153 56.6258 159.222 63.2827 152.272C69.9397 145.323 66.8911 141.408 66.8911 141.408L52.4459 138.457Z" fill="white"/>
</mask>
<g mask="url(#mask1_273_722)">
<path d="M54.5298 153.379C54.2202 152.725 53.9701 152.046 53.7796 151.344C53.6843 150.987 53.5652 150.63 53.589 150.261C53.6247 149.892 53.6724 149.512 53.8748 149.167L53.9344 149.178C54.0654 149.547 54.1011 149.881 54.1845 150.226C54.244 150.559 54.2321 150.916 54.2559 151.261C54.3274 151.963 54.4345 152.665 54.5893 153.367L54.5298 153.379Z" fill="#2E2D47"/>
</g>
<mask id="mask2_273_722" style="mask-type:luminance" maskUnits="userSpaceOnUse" x="51" y="138" width="17" height="18">
<path d="M52.4459 138.457C52.4459 138.457 51.2669 147.596 52.4459 149.881C53.6248 152.153 56.6258 159.222 63.2827 152.272C69.9397 145.323 66.8911 141.408 66.8911 141.408L52.4459 138.457Z" fill="white"/>
</mask>
<g mask="url(#mask2_273_722)">
<path d="M57.626 155.259C57.3164 154.605 57.0663 153.927 56.8757 153.225C56.7805 152.868 56.6614 152.511 56.6852 152.142C56.7209 151.773 56.7686 151.392 56.971 151.047L57.0306 151.059C57.1616 151.428 57.1973 151.761 57.2806 152.106C57.3402 152.439 57.3283 152.796 57.3521 153.141C57.4235 153.843 57.5307 154.545 57.6855 155.248L57.626 155.259Z" fill="#2E2D47"/>
</g>
<path d="M62.5322 156.378C62.5322 156.378 62.6513 165.541 64.128 169.682C64.8663 171.753 69.4631 174.323 73.9169 174.419C78.3708 174.514 82.6817 172.11 83.4796 171.206C85.0753 169.385 85.3016 162.114 85.3016 162.114L62.5322 156.378Z" fill="#1D1C42"/>
<mask id="mask3_273_722" style="mask-type:luminance" maskUnits="userSpaceOnUse" x="62" y="156" width="24" height="19">
<path d="M62.5322 156.378C62.5322 156.378 62.6513 165.541 64.128 169.682C64.8663 171.753 69.4631 174.323 73.9169 174.419C78.3708 174.514 82.6817 172.11 83.4796 171.206C85.0753 169.385 85.3016 162.114 85.3016 162.114L62.5322 156.378Z" fill="white"/>
</mask>
<g mask="url(#mask3_273_722)">
<path d="M63.6041 167.183C63.6041 167.183 66.0096 170.801 74.2147 171.812C77.5015 172.217 81.6814 170.515 85.1111 168.195C94.3642 161.947 84.4998 175.5 84.4998 175.5L74.9768 177.274L65.1998 174.418L62.8657 167.992L63.6041 167.183Z" fill="#EFE9DD"/>
</g>
<path d="M114.038 156.378C114.038 156.378 113.561 169.218 112.085 173.348C110.608 177.489 95.0552 176.608 93.4595 174.787C91.8637 172.967 91.2563 162.102 91.2563 162.102L114.038 156.378Z" fill="#1D1C42"/>
<mask id="mask4_273_722" style="mask-type:luminance" maskUnits="userSpaceOnUse" x="91" y="156" width="24" height="21">
<path d="M114.038 156.378C114.038 156.378 113.561 169.218 112.085 173.348C110.608 177.489 95.0552 176.608 93.4595 174.787C91.8637 172.967 91.2563 162.102 91.2563 162.102L114.038 156.378Z" fill="white"/>
</mask>
<g mask="url(#mask4_273_722)">
<path d="M112.966 170.753C112.966 170.753 101.688 176.227 91.4586 171.764C81.2171 167.314 94.5 177.5 94.5 177.5L111.382 177.988L113.716 171.562L112.966 170.753Z" fill="#EFE9DD"/>
</g>
<path d="M123.457 131.424C122.242 121.856 106.987 111.67 106.987 111.67L101.569 108.933H88.4219H75.2866L69.5585 112.788C67.8318 113.252 66.7004 115.085 65.581 116.334C64.2234 117.846 62.7825 119.25 61.4844 120.821C57.7451 125.331 54.6012 130.543 52.8268 136.148C52.4577 137.314 52.148 139.718 52.3624 140.777C52.5887 141.86 58.7097 145.977 63.3184 146.061C62.6634 146.025 62.1751 159.674 62.8301 159.71C62.8301 159.71 75.7272 167.255 88.4338 167.1C101.14 167.255 114.037 159.71 114.037 159.71C115.252 155.152 112.513 136.874 112.513 136.874C120.111 136.743 123.457 131.424 123.457 131.424Z" fill="url(#paint0_linear_273_722)"/>
<path d="M88.5888 132.59C88.2077 132.59 88.0887 132.554 87.7076 132.554C86.2547 132.519 81.7771 132.197 80.0503 131.436C77.6805 130.4 76.049 128.401 73.1552 126.414C71.8333 125.509 70.5948 124.724 68.9991 124.248C68.618 124.129 68.2607 123.974 67.8796 123.879C60.2343 121.987 55.1493 122.546 48.6948 118.131C44.5506 115.287 41.0494 111.741 38.0365 107.588C34.8688 103.233 40.061 102.959 41.6329 99.9244C41.9664 99.2818 41.359 99.0676 40.7755 98.544C38.2747 96.3187 34.6664 95.212 32.7133 92.4393C31.1176 90.1902 31.844 89.9879 33.7137 86.7868C34.9164 84.7281 35.75 82.479 36.4288 80.2061C37.7031 75.9578 38.4176 71.5429 39.6085 67.2589C40.5492 63.8912 42.0259 60.6068 42.6928 57.1795C44.0147 50.3489 42.5975 43.2327 42.3117 36.3664C42.014 29.036 41.8473 21.777 42.4308 14.4466C42.8238 9.5438 43.2763 2.11819 48.8734 0.237985C51.7315 -0.725916 54.8516 1.70169 56.8879 3.39149C62.3183 7.90159 66.6054 13.8873 70.5472 19.6945C73.2981 23.7405 75.6322 28.0245 78.0377 32.2847C78.4307 32.9749 79.443 32.4513 80.0384 32.368C85.3139 31.5588 89.994 31.2375 94.4955 31.9634C97.6632 32.4632 97.8061 32.8797 98.604 32.5108C98.6874 32.4632 98.7469 32.3799 98.7946 32.2966C101.2 28.0364 103.522 23.7524 106.285 19.7064C110.227 13.9111 114.514 7.91349 119.944 3.40339C121.981 1.71359 125.101 -0.714016 127.959 0.249885C133.556 2.13009 134.008 9.5676 134.401 14.4585C134.997 21.7889 134.83 29.0479 134.521 36.3783C134.235 43.2446 132.818 50.3727 134.139 57.1914C134.806 60.6187 136.283 63.9031 137.224 67.2708C138.415 71.5548 139.129 75.9697 140.403 80.218C141.094 82.4909 141.916 84.74 143.119 86.7987C144.988 89.9998 145.715 90.2021 144.119 92.4512C142.154 95.212 138.546 96.3306 136.057 98.5559C135.473 99.0676 134.866 99.2818 135.199 99.9363C136.771 102.983 141.963 103.245 138.796 107.6C135.783 111.753 132.282 115.287 128.138 118.143C121.695 122.57 116.598 123.189 108.953 125.081C108.572 125.176 107.023 125.331 106.642 125.45C103.022 126.533 100.128 130.769 96.9368 131.674C94.3288 132.4 91.3159 132.578 88.5888 132.59Z" fill="#1D1C42"/>
<path d="M131.758 142.503L123.112 129.329C122.457 128.33 122.743 126.997 123.731 126.354C123.731 126.354 128.411 123.296 128.411 123.284C130.4 121.987 132.484 124.177 133.592 125.64C134.354 126.652 135.128 127.651 135.842 128.687C136.855 130.15 137.855 131.709 138.689 133.28C139.248 134.327 139.879 135.375 140.213 136.529C140.403 137.195 140.475 137.933 140.308 138.611C140.106 139.432 139.546 139.968 138.855 140.42C138.141 140.884 137.438 141.348 136.724 141.812C136.057 142.241 135.402 142.681 134.735 143.11C133.746 143.764 132.401 143.49 131.758 142.503Z" fill="#FCB9DC"/>
<path d="M132.571 144.527L121.568 127.744L93.8452 145.893L104.848 162.676L132.571 144.527Z" fill="#FFDE34"/>
<path d="M118.813 136.291C118.373 137.124 117.849 137.838 117.337 138.564C116.634 139.004 115.955 139.468 115.253 139.908L111.096 142.622L106.94 145.335L104.868 146.691C103.999 146.87 103.13 147.06 102.201 147.155C102.653 146.346 103.177 145.62 103.689 144.894L105.761 143.538L109.918 140.825L114.074 138.111C114.764 137.659 115.467 137.219 116.146 136.743C117.003 136.564 117.872 136.374 118.813 136.291Z" fill="#FCBF0A"/>
<path d="M123.636 143.657C123.195 144.49 122.671 145.204 122.159 145.93C121.457 146.37 120.778 146.834 120.075 147.275L115.919 149.988L111.763 152.701L109.691 154.058C108.822 154.236 107.952 154.427 107.023 154.522C107.476 153.712 108 152.987 108.512 152.261L110.584 150.904L114.74 148.191L118.896 145.478C119.587 145.025 120.29 144.585 120.968 144.109C121.826 143.919 122.695 143.728 123.636 143.657Z" fill="#FCBF0A"/>
<path d="M134.576 143.225L123.573 126.442L120.316 128.574L131.319 145.357L134.576 143.225Z" fill="#C5C4C4"/>
<path d="M89.744 160.174C89.5892 159.865 89.4939 159.544 89.4463 159.222C89.4105 158.96 89.4105 158.687 89.4701 158.413C89.482 158.342 89.4939 158.282 89.5177 158.211L93.8763 145.882L98.2468 147.62C98.2468 147.62 99.2828 148.203 99.2233 149.119C99.1637 150.035 98.8541 152.094 98.8541 152.094C98.8541 152.094 98.6636 153.201 99.2233 154.046L99.521 154.51C100.069 155.355 101.164 155.617 101.164 155.617C101.164 155.617 103.177 156.164 104.046 156.473C104.904 156.783 105.023 157.973 105.023 157.973L104.868 162.673C104.499 162.649 104.13 162.626 103.76 162.59C102.855 162.53 101.938 162.459 101.033 162.4C99.8902 162.316 98.735 162.233 97.5918 162.15C96.5081 162.078 95.4244 161.995 94.3526 161.924C93.7215 161.876 93.1022 161.864 92.4711 161.816C91.8875 161.769 91.2683 161.709 90.7681 161.376C90.3275 161.079 89.9821 160.65 89.744 160.174Z" fill="#FFEDBF"/>
<mask id="mask5_273_722" style="mask-type:luminance" maskUnits="userSpaceOnUse" x="89" y="145" width="17" height="18">
<path d="M89.744 160.174C89.5892 159.865 89.4939 159.544 89.4463 159.222C89.4105 158.96 89.4105 158.687 89.4701 158.413C89.482 158.342 89.4939 158.282 89.5177 158.211L93.8763 145.882L98.2468 147.62C98.2468 147.62 99.2828 148.203 99.2233 149.119C99.1637 150.035 98.8541 152.094 98.8541 152.094C98.8541 152.094 98.6636 153.201 99.2233 154.046L99.521 154.51C100.069 155.355 101.164 155.617 101.164 155.617C101.164 155.617 103.177 156.164 104.046 156.473C104.904 156.783 105.023 157.973 105.023 157.973L104.868 162.673C104.499 162.649 104.13 162.626 103.76 162.59C102.855 162.53 101.938 162.459 101.033 162.4C99.8902 162.316 98.735 162.233 97.5918 162.15C96.5081 162.078 95.4244 161.995 94.3526 161.924C93.7215 161.876 93.1022 161.864 92.4711 161.816C91.8875 161.769 91.2683 161.709 90.7681 161.376C90.3275 161.079 89.9821 160.65 89.744 160.174Z" fill="white"/>
</mask>
<g mask="url(#mask5_273_722)">
<path d="M89.9225 155.962C89.9225 155.962 94.7932 157.128 94.2215 162.519C93.6499 167.909 88.7197 162.09 88.7197 162.09L88.0767 156.104L89.9225 155.962Z" fill="#616160"/>
</g>
<path d="M88.2431 103.185L82.2054 102.423C82.2054 102.423 77.954 90.5709 73.1668 90.4162C68.3795 90.2615 52.8982 92.5344 52.8625 92.5463C50.3617 92.9152 48.3134 99.0675 48.23 100.805C48.0037 105.851 50.707 111.003 54.6369 113.824C59.0074 116.953 65.1641 119.143 70.5469 120.107C71.2614 120.238 71.9521 121.428 72.3451 121.951C74.5244 124.783 78.4542 126.533 81.8006 127.532C83.8846 128.151 86.0639 128.437 88.2312 128.556C91.2441 128.71 94.257 127.973 96.996 126.771C99.604 125.616 102.557 124.165 104.225 121.761C104.665 121.13 105.082 120.273 105.928 120.119C111.31 119.155 117.467 116.965 121.838 113.835C125.779 111.015 128.483 105.862 128.244 100.817C128.161 99.0795 126.125 92.9271 123.612 92.5582C123.576 92.5582 108.095 90.2853 103.308 90.4281C98.5084 90.5828 94.2689 102.435 94.2689 102.435L88.2431 103.185Z" fill="url(#paint1_linear_273_722)"/>
<path d="M114.275 61.6183C110.965 61.6064 107.535 62.6298 104.844 64.5576C102.295 66.3902 99.7111 69.6151 99.6635 72.8757C99.6158 76.0292 99.5444 82.3243 99.5444 82.3243C99.5444 82.3243 99.5086 85.4778 99.4967 87.0486C99.461 89.619 100.271 91.6539 101.831 93.665C103.522 95.8427 105.832 97.473 108.404 98.4726C115.943 101.412 122.802 96.0569 122.802 96.0569C124.803 94.498 126.172 91.7729 126.91 89.3929C127.816 86.5131 127.899 83.4548 128.054 80.456C128.125 79.0875 128.22 77.7071 128.232 76.3386C128.256 74.4465 128.34 72.9352 127.613 71.1621C127.232 70.2577 126.78 69.3771 126.256 68.5441C124.886 66.3426 123.028 64.4148 120.718 63.1891C118.741 62.13 116.514 61.6302 114.275 61.6183Z" fill="white"/>
<path d="M107.071 68.9844C107.106 68.9487 107.63 69.9126 107.678 69.984C108.512 71.2216 108.905 72.3997 108.536 73.6611C108.226 74.7321 107.511 75.4104 106.583 75.9697C105.666 76.529 103.308 76.8979 103.308 76.9812V83.7761C103.308 83.7761 103.951 89.4167 109.583 89.4167C115.454 89.4167 117.193 84.8114 117.193 84.8114L118.229 74.7916C118.229 74.7916 117.943 69.2105 112.06 68.0562C112.084 68.0681 108.405 67.604 107.071 68.9844Z" fill="#0A100E"/>
<path d="M62.2229 61.6183C65.5335 61.6064 68.9632 62.6298 71.6546 64.5576C74.203 66.3902 76.7872 69.6151 76.8348 72.8757C76.8825 76.0292 76.9539 82.3243 76.9539 82.3243C76.9539 82.3243 76.9897 85.4778 77.0016 87.0486C77.0373 89.619 76.2275 91.6539 74.6675 93.665C72.9764 95.8427 70.6661 97.473 68.0939 98.4726C60.5557 101.412 53.6963 96.0569 53.6963 96.0569C51.6956 94.498 50.3261 91.7729 49.5878 89.3929C48.6827 86.5131 48.5994 83.4548 48.4446 80.456C48.3731 79.0875 48.2778 77.7071 48.2659 76.3386C48.2421 74.4465 48.1588 72.9352 48.8852 71.1621C49.2663 70.2577 49.7188 69.3771 50.2428 68.5441C51.6123 66.3426 53.47 64.4148 55.7803 63.1891C57.7571 62.13 59.9841 61.6302 62.2229 61.6183Z" fill="white"/>
<path d="M60.4011 69.8174C60.4368 69.7698 61.1394 70.6147 61.199 70.6861C62.2589 71.7333 62.8781 72.8162 62.7709 74.1252C62.6757 75.2319 62.116 76.0411 61.3181 76.767C60.5202 77.4929 58.2933 78.3259 58.3171 78.4092L59.6628 85.0732C59.6628 85.0732 61.4133 90.4758 66.9271 89.3691C72.6909 88.2148 73.4768 83.3596 73.4768 83.3596L72.5122 73.3398C72.5122 73.3398 71.1308 67.9253 65.1408 67.9491C65.1288 67.9253 61.4252 68.199 60.4011 69.8174Z" fill="#0A100E"/>
<path d="M88.1956 109.635C87.4454 109.516 86.6594 109.325 85.9687 108.992C84.3849 108.231 83.0868 106.767 81.9555 105.458C81.4315 104.851 80.9195 104.232 80.4312 103.59C79.9429 102.959 79.4428 102.245 79.8358 101.424C80.7765 99.4722 83.194 99.0914 85.0994 98.9367C86.1235 98.8534 87.1834 98.8177 88.2195 98.8891C89.2555 98.8177 90.2797 98.8534 91.3038 98.9367C93.2092 99.0914 95.6267 99.4841 96.5674 101.424C96.9604 102.245 96.4722 102.959 95.972 103.59C95.4838 104.22 94.9717 104.851 94.4477 105.458C93.3164 106.767 92.0183 108.231 90.4345 108.992C89.7319 109.325 88.9459 109.528 88.1956 109.635Z" fill="#0A100E"/>
<path opacity="0.8" d="M90.1844 102.019C91.7497 102.019 93.0186 101.555 93.0186 100.984C93.0186 100.412 91.7497 99.9482 90.1844 99.9482C88.619 99.9482 87.3501 100.412 87.3501 100.984C87.3501 101.555 88.619 102.019 90.1844 102.019Z" fill="#575756"/>
<path d="M102.459 36.27C102.401 36.5013 107.02 38.0746 107.367 38.2019C109.439 38.9191 111.535 39.5901 113.491 40.5849C115.401 41.5567 116.987 42.9102 118.608 44.2753C120.24 45.6403 121.989 46.855 123.575 48.2779C123.783 48.463 125.137 44.0323 125.242 43.5002C126.295 38.1787 126.735 32.7763 126.851 27.3623C126.955 22.4111 127.163 19.3802 125.682 14.6024C125.369 13.596 124.836 12.3813 123.771 11.9764C121.63 11.1666 119.662 12.578 118.18 13.9893C112.82 19.0562 109.161 25.6155 105.237 31.7699C104.299 33.2275 103.107 34.6735 102.459 36.27Z" fill="#F5BFD9"/>
<path d="M73.9119 36.4666C73.6688 35.8651 62.8213 40.6544 61.6637 41.3832C58.4685 43.3845 55.9332 46.1725 53.1431 48.6712C52.9348 48.8563 51.4298 44.0439 51.314 43.5118C50.2605 38.1903 49.8206 32.7879 49.7048 27.3739C49.6007 22.4226 49.3923 19.3917 50.8741 14.614C51.1867 13.6076 51.7192 12.3929 52.7843 11.988C54.2314 11.4443 55.8521 12.3582 56.894 13.2374C64.7662 19.8545 70.1726 27.2929 73.9119 36.4666Z" fill="#F5BFD9"/>
<path d="M78.2649 56.491C78.3168 55.4867 74.7486 54.4866 70.2952 54.2571C65.8418 54.0276 62.1896 54.6557 62.1378 55.6599C62.086 56.6642 65.6541 57.6643 70.1075 57.8938C74.5609 58.1233 78.2131 57.4952 78.2649 56.491Z" fill="#5B68AE"/>
<path d="M105.633 57.8899C110.088 57.6952 113.663 56.723 113.619 55.7185C113.575 54.7139 109.928 54.0574 105.474 54.2522C101.019 54.4469 97.4434 55.4191 97.4873 56.4236C97.5313 57.4282 101.178 58.0846 105.633 57.8899Z" fill="#5B68AE"/>
<defs>
<linearGradient id="paint0_linear_273_722" x1="43.1845" y1="78.3894" x2="148.202" y2="95.5772" gradientUnits="userSpaceOnUse">
<stop offset="0.457518" stop-color="#FF3F3E"/>
<stop offset="1" stop-color="#FF7B7B"/>
</linearGradient>
<linearGradient id="paint1_linear_273_722" x1="88.2485" y1="128.569" x2="88.218" y2="83.1141" gradientUnits="userSpaceOnUse">
<stop stop-color="#F0E8DB"/>
<stop offset="0.504808" stop-color="#FFF5D8"/>
<stop offset="1" stop-color="#FFCFD0"/>
</linearGradient>
</defs>
</svg>
