<svg width="114" height="177" viewBox="0 0 114 177" fill="none" xmlns="http://www.w3.org/2000/svg">
<path d="M20.6109 138.438C20.6109 138.438 19.4319 147.577 20.6109 149.862C21.7899 152.135 24.7908 159.203 31.4478 152.254C38.1047 145.304 35.0561 141.389 35.0561 141.389L20.6109 138.438Z" fill="#F2ECE0"/>
<mask id="mask0_912_1719" style="mask-type:luminance" maskUnits="userSpaceOnUse" x="20" y="138" width="16" height="18">
<path d="M20.6109 138.438C20.6109 138.438 19.4319 147.577 20.6109 149.862C21.7899 152.135 24.7908 159.203 31.4478 152.254C38.1047 145.304 35.0561 141.389 35.0561 141.389L20.6109 138.438Z" fill="white"/>
</mask>
<g mask="url(#mask0_912_1719)">
<path d="M22.6948 153.36C22.3852 152.706 22.1351 152.028 21.9446 151.326C21.8493 150.969 21.7302 150.612 21.7541 150.243C21.7898 149.874 21.8374 149.493 22.0399 149.148L22.0994 149.16C22.2304 149.529 22.2661 149.862 22.3495 150.207C22.409 150.54 22.3971 150.897 22.4209 151.242C22.4924 151.944 22.5996 152.646 22.7544 153.349L22.6948 153.36Z" fill="#2E2D47"/>
</g>
<mask id="mask1_912_1719" style="mask-type:luminance" maskUnits="userSpaceOnUse" x="20" y="138" width="16" height="18">
<path d="M20.6109 138.438C20.6109 138.438 19.4319 147.577 20.6109 149.862C21.7899 152.135 24.7908 159.203 31.4478 152.254C38.1047 145.304 35.0561 141.389 35.0561 141.389L20.6109 138.438Z" fill="white"/>
</mask>
<g mask="url(#mask1_912_1719)">
<path d="M25.7915 155.241C25.4819 154.586 25.2318 153.908 25.0413 153.206C24.946 152.849 24.8269 152.492 24.8507 152.123C24.8865 151.754 24.9341 151.373 25.1365 151.028L25.1961 151.04C25.3271 151.409 25.3628 151.742 25.4462 152.087C25.5057 152.42 25.4938 152.777 25.5176 153.122C25.5891 153.825 25.6963 154.527 25.8511 155.229L25.7915 155.241Z" fill="#2E2D47"/>
</g>
<path d="M30.6973 156.359C30.6973 156.359 30.8164 165.522 32.293 169.663C33.0314 171.734 37.6281 174.304 42.082 174.4C46.5358 174.495 50.8467 172.091 51.6446 171.187C53.2404 169.366 53.4666 162.095 53.4666 162.095L30.6973 156.359Z" fill="#1D1C42"/>
<mask id="mask2_912_1719" style="mask-type:luminance" maskUnits="userSpaceOnUse" x="30" y="156" width="24" height="19">
<path d="M30.6973 156.359C30.6973 156.359 30.8164 165.522 32.293 169.663C33.0314 171.734 37.6281 174.304 42.082 174.4C46.5358 174.495 50.8467 172.091 51.6446 171.187C53.2404 169.366 53.4666 162.095 53.4666 162.095L30.6973 156.359Z" fill="white"/>
</mask>
<g mask="url(#mask2_912_1719)">
<path d="M31.7686 167.164C31.7686 167.164 34.1742 170.782 42.3792 171.793C45.666 172.198 49.846 170.496 53.2757 168.176C62.5287 161.928 52.6643 175.481 52.6643 175.481L43.1414 177.255L33.3644 174.399L31.0303 167.973L31.7686 167.164Z" fill="#EFE9DD"/>
</g>
<path d="M82.2022 156.359C82.2022 156.359 81.7258 169.199 80.2492 173.329C78.7725 177.47 63.2198 176.589 61.624 174.769C60.0282 172.948 59.4209 162.083 59.4209 162.083L82.2022 156.359Z" fill="#1D1C42"/>
<mask id="mask3_912_1719" style="mask-type:luminance" maskUnits="userSpaceOnUse" x="59" y="156" width="24" height="21">
<path d="M82.2022 156.359C82.2022 156.359 81.7258 169.199 80.2492 173.329C78.7725 177.47 63.2198 176.589 61.624 174.769C60.0282 172.948 59.4209 162.083 59.4209 162.083L82.2022 156.359Z" fill="white"/>
</mask>
<g mask="url(#mask3_912_1719)">
<path d="M81.1302 170.734C81.1302 170.734 69.8527 176.208 59.6231 171.746C49.3817 167.295 62.6646 177.481 62.6646 177.481L79.5463 177.969L81.8804 171.543L81.1302 170.734Z" fill="#EFE9DD"/>
</g>
<path d="M91.6222 131.405C90.4075 121.837 75.1525 111.651 75.1525 111.651L69.7341 108.914H56.5869H43.4516L37.7236 112.77C35.9968 113.234 34.8655 115.066 33.7461 116.316C32.3885 117.827 30.9475 119.231 29.6495 120.802C25.9102 125.312 22.7663 130.524 20.9919 136.129C20.6227 137.295 20.3131 139.699 20.5274 140.758C20.7537 141.841 26.8748 145.959 31.4834 146.042C30.8284 146.006 30.3402 159.656 30.9952 159.691C30.9952 159.691 43.8923 167.236 56.5988 167.081C69.3054 167.236 82.2025 159.691 82.2025 159.691C83.4171 155.134 80.6781 136.855 80.6781 136.855C88.2759 136.724 91.6222 131.405 91.6222 131.405Z" fill="url(#paint0_linear_912_1719)"/>
<path d="M56.7534 132.571C56.3723 132.571 56.2532 132.535 55.8721 132.535C54.4193 132.5 49.9416 132.178 48.2149 131.417C45.845 130.382 44.2135 128.382 41.3197 126.395C39.9979 125.491 38.7594 124.705 37.1636 124.229C36.7825 124.11 36.4253 123.956 36.0442 123.86C28.3988 121.968 23.3138 122.528 16.8593 118.113C12.7151 115.269 9.21396 111.722 6.20107 107.569C3.03336 103.214 8.22554 102.94 9.79748 99.9056C10.1309 99.263 9.52359 99.0488 8.94006 98.5252C6.43924 96.2999 2.83091 95.1932 0.877888 92.4205C-0.717874 90.1714 0.00855494 89.9691 1.87822 86.768C3.08099 84.7093 3.9146 82.4602 4.59339 80.1873C5.86762 75.939 6.58214 71.5241 7.77301 67.2401C8.71379 63.8724 10.1905 60.588 10.8574 57.1607C12.1792 50.3301 10.7621 43.2139 10.4763 36.3476C10.1786 29.0172 10.0118 21.7582 10.5954 14.4278C10.9884 9.525 11.4409 2.09939 17.038 0.219186C19.896 -0.744715 23.0161 1.68289 25.0525 3.37269C30.4828 7.88279 34.77 13.8685 38.7117 19.6757C41.4626 23.7217 43.7967 28.0057 46.2023 32.2659C46.5953 32.9561 47.6075 32.4325 48.2029 32.3492C53.4785 31.54 58.1586 31.2187 62.6601 31.9446C65.8278 32.4444 65.9707 32.8609 66.7686 32.492C66.8519 32.4444 66.9115 32.3611 66.9591 32.2778C69.3647 28.0176 71.6869 23.7336 74.4497 19.6876C78.3914 13.8923 82.6786 7.89469 88.1089 3.38459C90.1453 1.69479 93.2654 -0.732815 96.1234 0.231086C101.721 2.11129 102.173 9.5488 102.566 14.4397C103.161 21.7701 102.995 29.0291 102.685 36.3595C102.399 43.2258 100.982 50.3539 102.304 57.1726C102.971 60.5999 104.448 63.8843 105.388 67.252C106.579 71.536 107.294 75.9509 108.568 80.1992C109.259 82.4721 110.08 84.7212 111.283 86.7799C113.153 89.981 113.879 90.1833 112.284 92.4324C110.319 95.1932 106.71 96.3118 104.221 98.5371C103.638 99.0488 103.03 99.263 103.364 99.9175C104.936 102.964 110.128 103.226 106.96 107.581C103.947 111.734 100.446 115.269 96.3021 118.125C89.8595 122.551 84.7626 123.17 77.1172 125.062C76.7361 125.157 75.188 125.312 74.8069 125.431C71.1867 126.514 68.2929 130.75 65.1014 131.655C62.4934 132.381 59.4805 132.559 56.7534 132.571Z" fill="#1D1C42"/>
<path d="M99.9233 142.484L91.2776 129.311C90.6226 128.311 90.9084 126.978 91.8968 126.336C91.8968 126.336 96.5769 123.277 96.5769 123.265C98.5657 121.968 100.65 124.158 101.757 125.622C102.519 126.633 103.293 127.633 104.008 128.668C105.02 130.132 106.021 131.691 106.854 133.261C107.414 134.309 108.045 135.356 108.378 136.51C108.569 137.176 108.64 137.914 108.474 138.593C108.271 139.414 107.712 139.949 107.021 140.401C106.306 140.865 105.604 141.33 104.889 141.794C104.222 142.222 103.567 142.662 102.9 143.091C101.912 143.745 100.566 143.472 99.9233 142.484Z" fill="#FCB9DC"/>
<path d="M100.736 144.508L89.7334 127.725L62.0103 145.874L73.013 162.657L100.736 144.508Z" fill="#FFDE34"/>
<path d="M86.9778 136.272C86.5372 137.105 86.0132 137.819 85.5012 138.545C84.7985 138.985 84.1198 139.449 83.4171 139.89L79.261 142.603L75.1049 145.316L73.0328 146.673C72.1634 146.851 71.2941 147.042 70.3652 147.137C70.8178 146.328 71.3417 145.602 71.8538 144.876L73.9259 143.519L78.0821 140.806L82.2382 138.093C82.9289 137.641 83.6315 137.2 84.3103 136.724C85.1677 136.546 86.037 136.355 86.9778 136.272Z" fill="#FCBF0A"/>
<path d="M91.8011 143.638C91.3605 144.471 90.8365 145.185 90.3244 145.911C89.6218 146.351 88.943 146.815 88.2404 147.256L84.0842 149.969L79.9281 152.682L77.856 154.039C76.9867 154.217 76.1174 154.408 75.1885 154.503C75.641 153.694 76.165 152.968 76.6771 152.242L78.7492 150.885L82.9053 148.172L87.0614 145.459C87.7521 145.007 88.4547 144.566 89.1335 144.09C89.991 143.9 90.8603 143.71 91.8011 143.638Z" fill="#FCBF0A"/>
<path d="M102.741 143.206L91.7383 126.423L88.4808 128.555L99.4836 145.338L102.741 143.206Z" fill="#C5C4C4"/>
<path d="M57.909 160.155C57.7542 159.846 57.6589 159.525 57.6113 159.203C57.5756 158.942 57.5756 158.668 57.6351 158.394C57.647 158.323 57.6589 158.263 57.6827 158.192L62.0413 145.863L66.4118 147.601C66.4118 147.601 67.4479 148.184 67.3883 149.1C67.3288 150.017 67.0192 152.075 67.0192 152.075C67.0192 152.075 66.8286 153.182 67.3883 154.027L67.686 154.491C68.2338 155.336 69.3294 155.598 69.3294 155.598C69.3294 155.598 71.342 156.145 72.2113 156.454C73.0688 156.764 73.1878 157.954 73.1878 157.954L73.033 162.654C72.6639 162.631 72.2947 162.607 71.9255 162.571C71.0205 162.512 70.1035 162.44 69.1984 162.381C68.0552 162.297 66.9001 162.214 65.7568 162.131C64.6731 162.059 63.5895 161.976 62.5177 161.905C61.8865 161.857 61.2673 161.845 60.6361 161.798C60.0526 161.75 59.4333 161.69 58.9332 161.357C58.4925 161.06 58.1472 160.631 57.909 160.155Z" fill="#FFEDBF"/>
<mask id="mask4_912_1719" style="mask-type:luminance" maskUnits="userSpaceOnUse" x="57" y="145" width="17" height="18">
<path d="M57.909 160.155C57.7542 159.846 57.6589 159.525 57.6113 159.203C57.5756 158.942 57.5756 158.668 57.6351 158.394C57.647 158.323 57.6589 158.263 57.6827 158.192L62.0413 145.863L66.4118 147.601C66.4118 147.601 67.4479 148.184 67.3883 149.1C67.3288 150.017 67.0192 152.075 67.0192 152.075C67.0192 152.075 66.8286 153.182 67.3883 154.027L67.686 154.491C68.2338 155.336 69.3294 155.598 69.3294 155.598C69.3294 155.598 71.342 156.145 72.2113 156.454C73.0688 156.764 73.1878 157.954 73.1878 157.954L73.033 162.654C72.6639 162.631 72.2947 162.607 71.9255 162.571C71.0205 162.512 70.1035 162.44 69.1984 162.381C68.0552 162.297 66.9001 162.214 65.7568 162.131C64.6731 162.059 63.5895 161.976 62.5177 161.905C61.8865 161.857 61.2673 161.845 60.6361 161.798C60.0526 161.75 59.4333 161.69 58.9332 161.357C58.4925 161.06 58.1472 160.631 57.909 160.155Z" fill="white"/>
</mask>
<g mask="url(#mask4_912_1719)">
<path d="M58.088 155.943C58.088 155.943 62.9587 157.109 62.3871 162.5C61.8155 167.89 56.8853 162.071 56.8853 162.071L56.2422 156.086L58.088 155.943Z" fill="#616160"/>
</g>
<path d="M56.4082 103.166L50.3705 102.405C50.3705 102.405 46.1191 90.5522 41.3318 90.3975C36.5445 90.2428 21.0632 92.5157 21.0275 92.5276C18.5267 92.8965 16.4784 99.0488 16.395 100.786C16.1688 105.832 18.872 110.985 22.8019 113.805C27.1724 116.935 33.3292 119.124 38.7119 120.088C39.4264 120.219 40.1171 121.409 40.5101 121.933C42.6894 124.765 46.6193 126.514 49.9656 127.514C52.0496 128.132 54.2289 128.418 56.3963 128.537C59.4092 128.692 62.4221 127.954 65.1611 126.752C67.7691 125.598 70.7224 124.146 72.3896 121.742C72.8302 121.111 73.247 120.255 74.0926 120.1C79.4753 119.136 85.6321 116.946 90.0025 113.817C93.9443 110.996 96.6476 105.844 96.4094 100.798C96.3261 99.0607 94.2897 92.9084 91.7769 92.5395C91.7412 92.5395 76.2599 90.2666 71.4727 90.4094C66.6735 90.5641 62.434 102.417 62.434 102.417L56.4082 103.166Z" fill="url(#paint1_linear_912_1719)"/>
<path d="M82.4409 61.5995C79.1303 61.5876 75.7006 62.611 73.0093 64.5388C70.4608 66.3714 67.8766 69.5963 67.829 72.8569C67.7814 76.0104 67.7099 82.3055 67.7099 82.3055C67.7099 82.3055 67.6742 85.459 67.6623 87.0298C67.6265 89.6002 68.4363 91.6351 69.9964 93.6462C71.6874 95.8239 73.9977 97.4542 76.5699 98.4538C84.1081 101.393 90.9675 96.0381 90.9675 96.0381C92.9682 94.4792 94.3377 91.7541 95.076 89.3741C95.9811 86.4943 96.0644 83.436 96.2193 80.4372C96.2907 79.0687 96.386 77.6883 96.3979 76.3198C96.4217 74.4277 96.5051 72.9164 95.7786 71.1433C95.3976 70.2389 94.945 69.3583 94.421 68.5253C93.0515 66.3238 91.1938 64.396 88.8835 63.1703C86.9067 62.1112 84.6798 61.6114 82.4409 61.5995Z" fill="white"/>
<path d="M75.2358 68.9656C75.2715 68.9299 75.7955 69.8938 75.8431 69.9652C76.6767 71.2028 77.0697 72.3809 76.7006 73.6423C76.3909 74.7133 75.6764 75.3916 74.7475 75.9509C73.8306 76.5102 71.4727 76.8791 71.4727 76.9624V83.7573C71.4727 83.7573 72.1157 89.3979 77.7485 89.3979C83.6195 89.3979 85.3582 84.7926 85.3582 84.7926L86.3942 74.7728C86.3942 74.7728 86.1084 69.1917 80.2255 68.0374C80.2493 68.0493 76.5696 67.5852 75.2358 68.9656Z" fill="#0A100E"/>
<path d="M30.3875 61.5995C33.6981 61.5876 37.1278 62.611 39.8191 64.5388C42.3676 66.3714 44.9518 69.5963 44.9994 72.8569C45.047 76.0104 45.1185 82.3055 45.1185 82.3055C45.1185 82.3055 45.1542 85.459 45.1661 87.0298C45.2018 89.6002 44.3921 91.6351 42.832 93.6462C41.141 95.8239 38.8307 97.4542 36.2584 98.4538C28.7202 101.393 21.8608 96.0381 21.8608 96.0381C19.8602 94.4792 18.4907 91.7541 17.7523 89.3741C16.8473 86.4943 16.7639 83.436 16.6091 80.4372C16.5377 79.0687 16.4424 77.6883 16.4305 76.3198C16.4067 74.4277 16.3233 72.9164 17.0497 71.1433C17.4308 70.2389 17.8833 69.3583 18.4073 68.5253C19.7768 66.3238 21.6346 64.396 23.9449 63.1703C25.9217 62.1112 28.1486 61.6114 30.3875 61.5995Z" fill="white"/>
<path d="M28.5657 69.7986C28.6014 69.751 29.304 70.5959 29.3635 70.6673C30.4234 71.7145 31.0427 72.7974 30.9355 74.1064C30.8402 75.2131 30.2805 76.0223 29.4826 76.7482C28.6847 77.4741 26.4578 78.3071 26.4816 78.3904L27.8273 85.0544C27.8273 85.0544 29.5779 90.457 35.0916 89.3503C40.8554 88.196 41.6414 83.3408 41.6414 83.3408L40.6768 73.321C40.6768 73.321 39.2954 67.9065 33.3053 67.9303C33.2934 67.9065 29.5898 68.1802 28.5657 69.7986Z" fill="#0A100E"/>
<path d="M56.3607 109.616C55.6104 109.497 54.8245 109.307 54.1338 108.973C52.5499 108.212 51.2519 106.748 50.1205 105.439C49.5966 104.832 49.0845 104.213 48.5962 103.571C48.108 102.94 47.6078 102.226 48.0008 101.405C48.9416 99.4534 51.359 99.0726 53.2644 98.9179C54.2886 98.8346 55.3485 98.7989 56.3845 98.8703C57.4206 98.7989 58.4447 98.8346 59.4688 98.9179C61.3742 99.0726 63.7917 99.4653 64.7325 101.405C65.1255 102.226 64.6372 102.94 64.137 103.571C63.6488 104.202 63.1367 104.832 62.6127 105.439C61.4814 106.748 60.1834 108.212 58.5995 108.973C57.8969 109.307 57.1109 109.509 56.3607 109.616Z" fill="#0A100E"/>
<path opacity="0.8" d="M58.3499 102C59.9152 102 61.1842 101.537 61.1842 100.965C61.1842 100.393 59.9152 99.9294 58.3499 99.9294C56.7846 99.9294 55.5156 100.393 55.5156 100.965C55.5156 101.537 56.7846 102 58.3499 102Z" fill="#575756"/>
<path d="M70.6226 36.2511C70.5647 36.4825 75.1839 38.0558 75.5312 38.183C77.6034 38.9002 79.6988 39.5712 81.6553 40.5661C83.5654 41.5378 85.1515 42.8913 86.7722 44.2564C88.4045 45.6215 90.1526 46.8361 91.7386 48.259C91.947 48.4441 93.3015 44.0135 93.4057 43.4813C94.4592 38.1599 94.8991 32.7575 95.0149 27.3435C95.1191 22.3922 95.3274 19.3613 93.8456 14.5836C93.533 13.5771 93.0005 12.3624 91.9354 11.9575C89.7937 11.1478 87.8257 12.5591 86.3439 13.9704C80.9838 19.0374 77.3256 25.5966 73.401 31.751C72.4633 33.2086 71.2709 34.6547 70.6226 36.2511Z" fill="#F5BFD9"/>
<path d="M42.0764 36.4478C41.8333 35.8462 30.9859 40.6355 29.8282 41.3643C26.633 43.3656 24.0977 46.1536 21.3077 48.6524C21.0993 48.8375 19.5943 44.025 19.4786 43.4929C18.4251 38.1715 17.9852 32.769 17.8694 27.355C17.7652 22.4038 17.5568 19.3729 19.0387 14.5951C19.3512 13.5887 19.8838 12.374 20.9488 11.9691C22.3959 11.4254 24.0167 12.3393 25.0586 13.2185C32.9308 19.8356 38.3371 27.2741 42.0764 36.4478Z" fill="#F5BFD9"/>
<path d="M46.43 56.4722C46.4818 55.468 42.9136 54.4679 38.4602 54.2384C34.0068 54.0089 30.3546 54.637 30.3028 55.6412C30.251 56.6454 33.8192 57.6456 38.2726 57.875C42.726 58.1045 46.3782 57.4765 46.43 56.4722Z" fill="#5B68AE"/>
<path d="M73.7975 57.8711C78.2522 57.6763 81.8279 56.7041 81.7839 55.6996C81.7399 54.6951 78.093 54.0386 73.6383 54.2333C69.1835 54.428 65.6079 55.4002 65.6519 56.4048C65.6959 57.4093 69.3428 58.0658 73.7975 57.8711Z" fill="#5B68AE"/>
<defs>
<linearGradient id="paint0_linear_912_1719" x1="11.3496" y1="78.3707" x2="116.367" y2="95.5585" gradientUnits="userSpaceOnUse">
<stop offset="0.457518" stop-color="#FF3F3E"/>
<stop offset="1" stop-color="#FF7B7B"/>
</linearGradient>
<linearGradient id="paint1_linear_912_1719" x1="56.4135" y1="128.55" x2="56.3831" y2="83.0954" gradientUnits="userSpaceOnUse">
<stop stop-color="#F0E8DB"/>
<stop offset="0.504808" stop-color="#FFF5D8"/>
<stop offset="1" stop-color="#FFCFD0"/>
</linearGradient>
</defs>
</svg>
