<svg width="70" height="56" viewBox="0 0 70 56" fill="none" xmlns="http://www.w3.org/2000/svg">
<path d="M67.9211 30.7797C66.0633 33.1954 62.8241 34.2783 59.7755 34.1236C56.7269 33.9689 53.8331 32.7432 51.1775 31.2319C45.2231 27.8642 40.0667 23.1161 35.3866 18.1776C30.7898 13.3343 26.717 7.81267 24.5258 1.44616C24.4068 1.10106 24.2877 0.137159 23.847 0.00625897C23.7637 -0.0175411 23.6803 0.0300586 23.6208 0.0895587C23.204 0.589359 22.9896 1.44616 22.7634 2.04116C22.2751 3.29066 21.8583 4.57587 21.5368 5.88487C20.8937 8.50287 20.6079 11.2042 20.7627 13.8936C20.7984 14.5719 20.8699 15.2502 20.9652 15.9285C21.0128 16.2974 21.1795 16.8686 20.7032 17.0352C20.5245 17.0947 20.334 17.0828 20.1554 17.0471C19.1788 16.8686 18.3691 16.4164 17.4878 15.9761C16.4399 15.4644 15.4038 14.9408 14.3916 14.3696C12.4504 13.2867 10.557 12.0729 8.87785 10.5973C6.17458 8.22917 4.41209 5.69447 2.60198 2.57667C2.55434 2.52907 2.50671 2.45767 2.44716 2.42197C2.23281 2.30297 2.01845 2.57666 1.93509 2.81466C-2.25676 14.2982 0.637045 29.197 7.96088 38.7765C15.9754 49.2485 29.2179 55.8768 42.4722 55.4484C49.4269 55.2223 56.3935 52.7828 61.3832 47.8324C63.7649 45.4762 66.1467 43.1914 68.2545 40.5853C68.5284 40.2402 68.8142 39.8832 68.9452 39.4667C69.1238 38.9312 69.0405 38.3362 68.9571 37.7769C68.6117 35.4564 68.2664 33.124 67.9211 30.7797Z" fill="#1D1C42"/>
<mask id="mask0_473_3456" style="mask-type:luminance" maskUnits="userSpaceOnUse" x="0" y="0" width="70" height="56">
<path d="M67.9211 30.7797C66.0633 33.1954 62.8241 34.2783 59.7755 34.1236C56.7269 33.9689 53.8331 32.7432 51.1775 31.2319C45.2231 27.8642 40.0667 23.1161 35.3866 18.1776C30.7898 13.3343 26.717 7.81267 24.5258 1.44616C24.4068 1.10106 24.2877 0.137159 23.847 0.00625897C23.7637 -0.0175411 23.6803 0.0300586 23.6208 0.0895587C23.204 0.589359 22.9896 1.44616 22.7634 2.04116C22.2751 3.29066 21.8583 4.57587 21.5368 5.88487C20.8937 8.50287 20.6079 11.2042 20.7627 13.8936C20.7984 14.5719 20.8699 15.2502 20.9652 15.9285C21.0128 16.2974 21.1795 16.8686 20.7032 17.0352C20.5245 17.0947 20.334 17.0828 20.1554 17.0471C19.1788 16.8686 18.3691 16.4164 17.4878 15.9761C16.4399 15.4644 15.4038 14.9408 14.3916 14.3696C12.4504 13.2867 10.557 12.0729 8.87785 10.5973C6.17458 8.22917 4.41209 5.69447 2.60198 2.57667C2.55434 2.52907 2.50671 2.45767 2.44716 2.42197C2.23281 2.30297 2.01845 2.57666 1.93509 2.81466C-2.25676 14.2982 0.637045 29.197 7.96088 38.7765C15.9754 49.2485 29.2179 55.8768 42.4722 55.4484C49.4269 55.2223 56.3935 52.7828 61.3832 47.8324C63.7649 45.4762 66.1467 43.1914 68.2545 40.5853C68.5284 40.2402 68.8142 39.8832 68.9452 39.4667C69.1238 38.9312 69.0405 38.3362 68.9571 37.7769C68.6117 35.4564 68.2664 33.124 67.9211 30.7797Z" fill="white"/>
</mask>
<g mask="url(#mask0_473_3456)">
<path d="M42.1265 19.0701C42.2336 18.487 34.9217 17.416 34.4454 17.3684C28.241 16.8686 21.5126 19.4033 16.5705 23.0804C13.2598 25.5318 11.2354 29.3993 10.2708 33.3382C9.72297 35.5992 9.56816 37.9316 9.58007 40.2521C9.58007 40.9304 9.32998 45.7975 10.0445 46.0593C10.0445 46.0593 -3.43611 41.1565 -3.60283 40.502C-3.79337 39.8475 -3.76956 -14.0595 -3.76956 -14.0595L9.72297 -18.5815L48.0093 -11.977C48.0093 -11.9651 42.1265 19.0582 42.1265 19.0701Z" fill="#FFE6D4"/>
</g>
</svg>
