<svg width="26" height="24" viewBox="0 0 26 24" fill="none" xmlns="http://www.w3.org/2000/svg">
<path d="M6.12185 18.9918C5.60236 18.9918 5.15986 18.8196 4.79435 18.4752C4.42885 18.1308 4.24609 17.7139 4.24609 17.2244V7.78613C4.24609 7.29149 4.42885 6.87015 4.79435 6.5221C5.15986 6.17403 5.60236 6 6.12185 6H19.332C19.857 6 20.3042 6.17403 20.6736 6.5221C21.043 6.87015 21.2277 7.29149 21.2277 7.78613V17.2244C21.2277 17.7139 21.043 18.1308 20.6736 18.4752C20.3042 18.8196 19.857 18.9918 19.332 18.9918H6.12185ZM12.7269 13.2573C12.82 13.2573 12.9065 13.2448 12.9863 13.2197C13.0661 13.1947 13.1535 13.1568 13.2485 13.106L19.0526 9.44066C19.1191 9.40932 19.1823 9.34822 19.2422 9.25734C19.302 9.16647 19.332 9.06297 19.332 8.94684C19.332 8.72914 19.2222 8.55021 19.0027 8.41004C18.7832 8.26986 18.5604 8.27497 18.3342 8.42538L12.7269 11.8848L7.13955 8.42538C6.91339 8.2875 6.68724 8.27497 6.46108 8.38778C6.23493 8.50059 6.12185 8.68134 6.12185 8.93003C6.12185 9.04113 6.15511 9.14148 6.22163 9.23106C6.28814 9.32065 6.35592 9.39093 6.42495 9.44188L12.2057 13.106C12.3004 13.1568 12.3877 13.1947 12.4675 13.2197C12.5473 13.2448 12.6338 13.2573 12.7269 13.2573Z" fill="currentColor"/>
</svg>
