<svg width="18" height="12" viewBox="0 0 18 12" fill="none" xmlns="http://www.w3.org/2000/svg">
<path d="M9 0C4.90909 0 1.41545 2.4258 0 5.85C1.41545 9.2742 4.90909 11.7 9 11.7C13.0909 11.7 16.5845 9.2742 18 5.85C16.5845 2.4258 13.0909 0 9 0ZM9 9.75C6.74182 9.75 4.90909 8.0028 4.90909 5.85C4.90909 3.6972 6.74182 1.95 9 1.95C11.2582 1.95 13.0909 3.6972 13.0909 5.85C13.0909 8.0028 11.2582 9.75 9 9.75ZM9 3.51C7.64182 3.51 6.54545 4.5552 6.54545 5.85C6.54545 7.1448 7.64182 8.19 9 8.19C10.3582 8.19 11.4545 7.1448 11.4545 5.85C11.4545 4.5552 10.3582 3.51 9 3.51Z" fill="url(#paint0_linear_678_6805)"/>
<defs>
<linearGradient id="paint0_linear_678_6805" x1="0" y1="5.85" x2="18" y2="5.85" gradientUnits="userSpaceOnUse">
<stop stop-color="#5F43FF"/>
<stop offset="1" stop-color="#8243FF"/>
</linearGradient>
</defs>
</svg>
