<svg width="62" height="17" viewBox="0 0 62 17" fill="none" xmlns="http://www.w3.org/2000/svg">
<path d="M10.8433 12.9193C11.0224 13.3088 11.0267 13.6858 10.8646 14.0544C10.7026 14.423 10.4424 14.7622 10.0884 15.068C9.73445 15.3779 9.3293 15.646 8.8687 15.8722C8.41236 16.0984 7.97735 16.2617 7.56792 16.3539C7.11585 16.446 6.64246 16.4921 6.14347 16.4837C5.64449 16.4753 5.14551 16.4167 4.65079 16.3036C4.1518 16.1905 3.66988 16.023 3.19648 15.801C2.72735 15.579 2.29234 15.3067 1.89571 14.9884C1.41805 14.5989 1.04701 14.134 0.77833 13.5895C0.509646 13.045 0.317729 12.467 0.194049 11.8513C0.0746344 11.2356 0.0106621 10.6157 0.00213241 9.99158C-0.00639723 9.3675 0.0106621 8.78111 0.0533103 8.23243C0.0959585 7.73819 0.198314 7.21882 0.360377 6.68269C0.522441 6.14657 0.752741 5.61883 1.04701 5.10364C1.34129 4.58846 1.69527 4.10679 2.11322 3.667C2.53117 3.22302 3.01736 2.85025 3.57605 2.54031C3.99827 2.29737 4.47167 2.13402 5.0005 2.04607C5.52508 1.95811 6.05818 1.93717 6.59555 1.98743C7.13291 2.0335 7.64469 2.14659 8.13088 2.33088C8.61707 2.51517 9.02649 2.75811 9.36768 3.06386C9.58518 3.25234 9.81549 3.51203 10.0543 3.84711C10.2931 4.18218 10.468 4.52564 10.5746 4.87328C10.6855 5.22092 10.6855 5.54762 10.5832 5.84919C10.4808 6.15076 10.2036 6.35599 9.75578 6.46071C9.56386 6.51516 9.39327 6.52353 9.244 6.49003C9.09473 6.45652 8.95826 6.39788 8.83458 6.30992C8.7109 6.22196 8.59575 6.11725 8.48486 5.99998C8.37398 5.87851 8.27162 5.75704 8.17779 5.63977C7.8494 5.25024 7.46983 4.98637 7.03056 4.84396C6.59128 4.70155 6.16053 4.66804 5.72979 4.74344C5.29904 4.81883 4.89815 4.99056 4.52284 5.26699C4.14754 5.54343 3.85753 5.89526 3.65282 6.32249C3.43531 6.77903 3.26046 7.27746 3.13251 7.82196C3.00457 8.36646 2.93206 8.91514 2.91927 9.47221C2.90648 10.0293 2.95765 10.5696 3.0728 11.089C3.18795 11.6125 3.3884 12.0732 3.67841 12.4753C3.89591 12.7978 4.1646 13.0575 4.48872 13.2586C4.81285 13.4596 5.15404 13.602 5.52081 13.6816C5.88759 13.7612 6.26289 13.7738 6.63819 13.7235C7.0135 13.669 7.38027 13.5476 7.73425 13.3633C7.84514 13.3088 7.96455 13.2334 8.0925 13.1329C8.22044 13.0324 8.35692 12.9277 8.49339 12.823C8.62987 12.7141 8.7706 12.6136 8.91134 12.5214C9.05635 12.4293 9.20988 12.3622 9.37194 12.3204C9.6193 12.2408 9.88799 12.245 10.1823 12.3413C10.4723 12.4293 10.694 12.6219 10.8433 12.9193Z" fill="currentColor"/>
<path d="M20.6055 11.9141C20.6183 12.1821 20.6268 12.4586 20.6268 12.7476C20.6268 13.0366 20.6183 13.3005 20.6055 13.5434C20.5927 13.9036 20.5714 14.2387 20.5458 14.5402C20.5202 14.8418 20.4648 15.0973 20.3837 15.3025C20.3027 15.512 20.1748 15.6628 20.0042 15.7633C19.8336 15.8638 19.599 15.8931 19.2962 15.8554C18.9806 15.8135 18.7588 15.6669 18.6224 15.4114C18.4859 15.1559 18.3921 14.8669 18.3452 14.5361C18.2982 14.2094 18.2812 13.8743 18.294 13.5392C18.3068 13.2041 18.3068 12.9444 18.294 12.756C18.2812 12.4628 18.2684 12.1235 18.2641 11.7424C18.2556 11.3612 18.2172 10.9968 18.1404 10.6575C18.0637 10.3141 17.94 10.0251 17.7609 9.78215C17.5818 9.53922 17.3173 9.41357 16.9634 9.401C16.5113 9.37587 16.1701 9.40938 15.9313 9.50153C15.6924 9.59367 15.5176 9.73189 15.411 9.91199C15.3001 10.0921 15.2361 10.3099 15.2148 10.5654C15.1935 10.8209 15.1636 11.0931 15.121 11.3905L15.0996 12.1738V13.6397C15.0996 13.8827 15.0954 14.134 15.0911 14.3936C15.0826 14.6533 15.0399 14.8921 14.9589 15.1057C14.8779 15.3193 14.7499 15.4994 14.5793 15.6502C14.4087 15.7968 14.1614 15.8722 13.833 15.8722C13.4236 15.8722 13.1207 15.7423 12.9203 15.4785C12.7241 15.2188 12.6218 14.8921 12.6218 14.5025V2.95077C12.6218 2.87119 12.626 2.79161 12.6303 2.72041C12.6388 2.64501 12.6474 2.56962 12.6601 2.49004C12.6857 2.41046 12.7071 2.33088 12.7199 2.25967C12.7327 2.18428 12.754 2.11727 12.7796 2.05025C12.8222 1.91622 12.8904 1.8157 12.9843 1.74868C13.0525 1.68167 13.1207 1.62722 13.189 1.58952C13.2572 1.55182 13.334 1.52251 13.415 1.50994C13.4918 1.489 13.5643 1.47643 13.6496 1.47224C13.7306 1.46387 13.8117 1.46387 13.8969 1.46387C14.1017 1.46387 14.2978 1.52251 14.4898 1.64397C14.5708 1.69842 14.6476 1.75287 14.7158 1.8157C14.784 1.87434 14.8395 1.95811 14.8779 2.06701C14.9887 2.3225 15.0399 2.56124 15.0399 2.79161C15.0527 2.85863 15.0655 2.95496 15.0698 3.0848C15.0783 3.21046 15.0783 3.34449 15.0783 3.47852C15.0783 3.61255 15.0826 3.74239 15.0868 3.87223C15.0954 3.99789 15.0954 4.09841 15.0954 4.16543V4.26595C15.1082 4.69317 15.1167 5.12877 15.1167 5.57275C15.1167 6.01673 15.1167 6.46489 15.1167 6.92143V7.26489C15.6882 7.07641 16.2895 6.98845 16.9164 6.99264C17.5434 7.00101 18.1021 7.12248 18.5968 7.36541C19.1 7.62091 19.4881 7.90991 19.7525 8.22823C20.017 8.54656 20.2131 8.90676 20.3368 9.2921C20.4605 9.68163 20.533 10.0963 20.5501 10.5403C20.5757 10.9717 20.5927 11.4324 20.6055 11.9141Z" fill="currentColor"/>
<path d="M36.086 11.4711C36.0732 11.5323 36.0604 11.5897 36.0561 11.647C36.0476 11.7006 36.0476 11.7617 36.0476 11.8229L35.9238 12.2091C35.8982 12.2588 35.8769 12.2894 35.8641 12.3009L35.8043 12.4118C35.736 12.5456 35.6123 12.6565 35.4373 12.7406C35.1086 12.8859 34.7629 12.9242 34.3916 12.8515C34.1611 12.8286 33.9734 12.7674 33.8368 12.668C33.7002 12.5838 33.6063 12.4768 33.5508 12.3544C33.4953 12.2321 33.4569 12.1097 33.4271 11.9873C33.3844 11.865 33.3673 11.7541 33.3673 11.6585V1.37654C33.3673 1.29242 33.3716 1.21594 33.3758 1.14711C33.3844 1.07829 33.3929 1.01711 33.4057 0.955928C33.4185 0.871807 33.4356 0.795332 33.4569 0.734153C33.4783 0.672974 33.4996 0.604147 33.5295 0.531496C33.5722 0.409137 33.6447 0.309721 33.7557 0.23707C33.9179 0.126183 34.0758 0.0650031 34.2252 0.053532C34.3191 0.0305897 34.4087 0.0152949 34.4898 0.00764743C34.5666 0.00382371 34.6648 0 34.7715 0C34.9635 0 35.1812 0.0497083 35.4287 0.145301C35.6208 0.244718 35.7574 0.378548 35.8385 0.550615C35.975 0.795333 36.0433 1.02093 36.0433 1.23124C36.0561 1.35359 36.0689 1.53713 36.0732 1.78185C36.0817 2.02657 36.0817 2.21011 36.0817 2.33247V2.40512C36.1073 2.79513 36.1244 3.17368 36.1244 3.53311C36.1244 3.89254 36.1159 4.29021 36.1031 4.71846C36.1031 5.13525 36.0988 5.53674 36.0945 5.91911C36.086 6.3053 36.086 6.68768 36.086 7.06622V10.9205C36.086 10.9702 36.0903 11.0161 36.0945 11.0582C36.1031 11.1002 36.1031 11.1461 36.1031 11.1958C36.1031 11.3182 36.0988 11.41 36.086 11.4711Z" fill="currentColor"/>
<path d="M41.3453 11.4711C41.3326 11.5323 41.3198 11.5897 41.3155 11.647C41.307 11.7006 41.307 11.7617 41.307 11.8229L41.1834 12.2091C41.1578 12.2588 41.1365 12.2894 41.1237 12.3009L41.0641 12.4118C40.9959 12.5456 40.8723 12.6565 40.6976 12.7406C40.3695 12.8859 40.0243 12.9242 39.6536 12.8515C39.4235 12.8286 39.236 12.7674 39.0996 12.668C38.9632 12.5838 38.8695 12.4768 38.8141 12.3544C38.7587 12.2321 38.7203 12.1097 38.6905 11.9873C38.6479 11.865 38.6309 11.7541 38.6309 11.6585V1.37654C38.6309 1.29242 38.6351 1.21594 38.6394 1.14711C38.6479 1.07829 38.6564 1.01711 38.6692 0.955928C38.682 0.871807 38.699 0.795332 38.7204 0.734153C38.7417 0.672974 38.763 0.604147 38.7928 0.531496C38.8354 0.409137 38.9078 0.309721 39.0186 0.23707C39.1806 0.126183 39.3382 0.0650031 39.4874 0.053532C39.5811 0.0305897 39.6706 0.0152949 39.7516 0.00764743C39.8326 0.00382371 39.9263 0 40.0371 0C40.2289 0 40.4462 0.0497083 40.6934 0.145301C40.8851 0.244718 41.0215 0.378548 41.1024 0.550615C41.2388 0.795333 41.307 1.02093 41.307 1.23124C41.3198 1.35359 41.3326 1.53713 41.3368 1.78185C41.3453 2.02657 41.3453 2.21011 41.3453 2.33247V2.40512C41.3709 2.79513 41.388 3.17368 41.388 3.53311C41.388 3.89254 41.3794 4.29021 41.3666 4.71846C41.3666 5.13525 41.3624 5.53674 41.3581 5.91911C41.3496 6.3053 41.3496 6.68768 41.3496 7.06622V10.9205C41.3496 10.9702 41.3539 11.0161 41.3581 11.0582C41.3666 11.1002 41.3666 11.1461 41.3666 11.1958C41.3666 11.3182 41.3581 11.41 41.3453 11.4711Z" fill="currentColor"/>
<path d="M48.0027 8.25755C48.0027 8.63451 48.0155 9.4387 48.024 9.90781C48.0325 10.3769 48.024 10.4816 48.024 10.9842C48.024 11.4869 48.024 11.9811 48.024 12.4711C48.024 12.9612 48.0155 13.4135 48.0027 13.8282C47.9899 14.0293 47.9685 14.2471 47.943 14.4816C47.9174 14.7162 47.8619 14.934 47.7809 15.135C47.6999 15.3361 47.5719 15.4994 47.4013 15.6292C47.2307 15.7549 47.0004 15.8135 46.7147 15.801C46.2925 15.7758 45.9897 15.5915 45.802 15.2565C45.6186 14.9214 45.512 14.4523 45.4864 13.8491C45.4864 13.5392 45.4821 13.1874 45.4779 12.7853C45.4693 12.3832 45.4651 11.9727 45.4566 11.5581C45.448 11.1434 45.448 10.7371 45.448 10.3434C45.448 9.94969 45.448 9.58948 45.448 9.26697C45.448 9.07849 45.4438 8.85231 45.4395 8.58425C45.431 8.31619 45.4352 8.03975 45.448 7.75912C45.4608 7.4785 45.4949 7.20625 45.5504 6.94656C45.6058 6.68688 45.6954 6.46908 45.8148 6.29316C45.9086 6.18426 46.0451 6.10049 46.2242 6.04186C46.4033 5.98322 46.591 5.94971 46.7872 5.94971C46.9834 5.94971 47.1753 5.98322 47.3587 6.05023C47.5421 6.11725 47.6743 6.20939 47.7596 6.33086C47.815 6.41044 47.8534 6.52353 47.8832 6.67431C47.9088 6.82091 47.9344 6.98426 47.9557 7.16855C47.9771 7.34865 47.9899 7.53714 47.9984 7.7298C48.0027 7.91829 48.0027 8.0942 48.0027 8.25755ZM47.2265 4.19474C46.8042 4.30364 46.4503 4.25757 46.173 4.0649C45.8916 3.87223 45.721 3.57904 45.6527 3.18951C45.5973 2.90889 45.6186 2.66177 45.7124 2.44397C45.8063 2.23035 45.9513 2.067 46.1432 1.94973C46.3351 1.83664 46.5526 1.78638 46.8 1.79894C47.0473 1.81151 47.2904 1.90784 47.5378 2.07957C47.7681 2.23873 47.9387 2.42721 48.041 2.64082C48.1434 2.85444 48.1775 3.06386 48.1434 3.2649C48.1093 3.46595 48.0155 3.65024 47.8662 3.81778C47.7126 3.98951 47.4994 4.11516 47.2265 4.19474Z" fill="currentColor"/>
<path d="M45.512 8.52141C45.512 8.21146 45.5078 7.88476 45.5035 7.53712C45.495 7.18948 45.5547 6.87534 45.6783 6.59053C45.7892 6.33503 45.9684 6.15074 46.22 6.03765C46.4716 5.92456 46.7232 5.89943 46.9663 5.96645C47.2137 6.00833 47.4013 6.07953 47.5378 6.18843C47.6743 6.29733 47.7724 6.4188 47.8363 6.56121C47.9003 6.70361 47.9344 6.86278 47.9472 7.04288C47.96 7.22298 47.9728 7.40309 47.9899 7.57481C48.1263 7.33188 48.2969 7.13921 48.5017 6.99262C48.7064 6.84602 48.9196 6.72456 49.1371 6.63241C49.3546 6.54026 49.5636 6.47325 49.7598 6.43136C49.956 6.38948 50.1095 6.37273 50.2204 6.37273C50.7407 6.37273 51.2525 6.48163 51.7642 6.70361C52.276 6.9256 52.7025 7.23555 53.0437 7.63764C53.2356 7.88057 53.3806 8.13188 53.483 8.39156C53.5853 8.65125 53.6621 8.9235 53.709 9.20413C53.7559 9.48475 53.7858 9.76957 53.8028 10.0586C53.8156 10.3476 53.8284 10.6366 53.8455 10.934C53.9137 11.7926 53.9137 12.6429 53.8455 13.4889C53.8327 13.6648 53.8241 13.8659 53.8241 14.0921C53.8241 14.3182 53.8071 14.5444 53.773 14.7664C53.7389 14.9884 53.6791 15.1811 53.5896 15.3486C53.5 15.5161 53.355 15.6208 53.1503 15.6585C52.8646 15.7256 52.63 15.7423 52.4423 15.7088C52.259 15.6753 52.1097 15.6125 52.0031 15.5161C51.8922 15.424 51.8112 15.3025 51.7557 15.1559C51.7003 15.0093 51.6534 14.8418 51.6107 14.6533C51.5809 14.5067 51.5595 14.335 51.5382 14.1423C51.5169 13.9497 51.5041 13.7486 51.4956 13.5476C51.487 13.3465 51.4828 13.1497 51.4742 12.9528C51.4657 12.7601 51.4657 12.58 51.4657 12.4209C51.4657 12.1654 51.4572 11.8847 51.4444 11.5748C51.4316 11.2648 51.4316 10.98 51.4444 10.712C51.4444 10.0837 51.2781 9.60203 50.9411 9.27533C50.6085 8.94863 50.1521 8.81041 49.5807 8.86486C49.1456 8.91931 48.7618 9.09104 48.4334 9.37585C48.105 9.66486 47.9472 10.0376 47.9643 10.49C47.9643 10.6659 47.9643 10.8251 47.9643 10.9717C47.9643 11.1183 47.96 11.2648 47.9558 11.4156C47.9472 11.5622 47.9472 11.7256 47.9472 11.8973C47.9472 12.0732 47.9472 12.2659 47.9472 12.4795C47.9472 12.9235 47.9472 13.3884 47.9472 13.8784C47.9472 14.3685 47.8875 14.7664 47.7638 15.0763C47.653 15.3989 47.4696 15.6208 47.2094 15.7381C46.9493 15.8596 46.6422 15.8261 46.2882 15.6376C46.1389 15.558 46.0195 15.4449 45.93 15.3067C45.8404 15.1643 45.7722 15.0135 45.7253 14.8544C45.6783 14.6952 45.6485 14.5277 45.6314 14.3601C45.6186 14.1926 45.6058 14.0334 45.5888 13.8868C45.5461 13.4428 45.5248 13.0324 45.5163 12.6512C45.5078 12.2701 45.5077 11.8554 45.5077 11.4156V8.52141H45.512Z" fill="currentColor"/>
<path d="M59.0358 11.2523C59.3343 11.5622 59.5561 11.7842 59.7011 11.9266C59.8461 12.069 59.9485 12.1696 60.0082 12.2366C60.0679 12.3036 60.1148 12.3455 60.1404 12.358C60.166 12.3706 60.2129 12.4125 60.2854 12.4795C60.3536 12.5465 60.4645 12.6512 60.6138 12.7894C60.763 12.9319 60.9891 13.1538 61.2876 13.4638C61.535 13.7067 61.7354 13.9832 61.8932 14.2973C62.051 14.6114 62.034 14.9507 61.8421 15.3109C61.7312 15.4994 61.6118 15.6292 61.4753 15.7046C61.3388 15.78 61.1938 15.8093 61.036 15.7968C60.8782 15.7842 60.7161 15.7381 60.5455 15.6544C60.375 15.5748 60.2086 15.4743 60.0423 15.3528C59.7267 15.1266 59.4282 14.8585 59.1424 14.557C58.8567 14.2554 58.6221 14.025 58.4473 13.8617C58.3236 13.7402 58.2511 13.6606 58.2212 13.6188C58.1956 13.5936 58.1658 13.5685 58.1402 13.5476C58.1146 13.5266 58.0847 13.5057 58.0592 13.4764C57.9653 13.3842 57.863 13.2879 57.7521 13.1957C57.6412 13.1036 57.5346 13.0031 57.4237 12.8942V13.6774C57.4237 13.824 57.4322 13.9329 57.445 13.9999C57.445 14.1339 57.4365 14.2345 57.4237 14.3015C57.381 14.4481 57.364 14.5905 57.364 14.7245C57.3512 14.7915 57.3384 14.8544 57.3213 14.9172C57.3085 14.9758 57.2872 15.0428 57.2616 15.1099C57.2488 15.135 57.236 15.1559 57.2318 15.1685C57.2233 15.1811 57.2233 15.202 57.2233 15.2271C57.2105 15.2523 57.1977 15.2732 57.1934 15.2858C57.1849 15.2983 57.1763 15.3193 57.1635 15.3444C57.0953 15.4784 56.9844 15.6041 56.8351 15.7256C56.575 15.8722 56.2551 15.914 55.8713 15.847C55.6666 15.8051 55.5088 15.7339 55.4022 15.625C55.2785 15.5455 55.1975 15.4324 55.1548 15.2816C55.1292 15.2146 55.1036 15.1434 55.0823 15.0722C55.061 14.9968 55.0397 14.9297 55.0098 14.8627C54.9842 14.7957 54.9672 14.7329 54.9672 14.6701C54.9672 14.6072 54.9672 14.5612 54.9672 14.5193V3.08897C54.9672 3.00939 54.9672 2.92981 54.9672 2.84604C54.9672 2.76227 54.9757 2.68688 54.9885 2.60311C55.0013 2.52353 55.0183 2.44395 55.0397 2.37274C55.061 2.29735 55.0823 2.23033 55.1122 2.16332C55.1676 2.02929 55.2358 1.92039 55.3169 1.84081C55.3851 1.77379 55.4576 1.72353 55.5301 1.69002C55.6026 1.65652 55.6751 1.6272 55.7434 1.59788C55.8116 1.58531 55.8884 1.57275 55.9779 1.56856C56.0675 1.56018 56.1528 1.56018 56.2338 1.56018C56.4257 1.56018 56.6134 1.61463 56.8053 1.71934C56.9844 1.84081 57.1124 1.99578 57.1934 2.18007C57.3043 2.43557 57.3555 2.68269 57.3555 2.92562C57.3683 3.05965 57.3811 3.26488 57.3981 3.53713C57.4109 3.81357 57.4194 4.01462 57.4194 4.14865V4.22823C57.4322 4.67221 57.4408 5.09105 57.4408 5.49315C57.4408 5.89524 57.4408 6.33084 57.4408 6.79995C57.428 7.26905 57.4194 7.71303 57.4194 8.13607C57.4194 8.5591 57.4194 8.97795 57.4194 9.3926V9.61459C57.5303 9.50569 57.6369 9.40517 57.7478 9.31302C57.8587 9.22088 57.9611 9.12035 58.0549 9.01145C58.1103 8.96957 58.1658 8.9235 58.217 8.86905L58.443 8.64706C58.6221 8.47114 58.8524 8.23659 59.1382 7.93502C59.4239 7.63345 59.7267 7.36958 60.038 7.13921C60.3792 6.89628 60.7119 6.74968 61.0317 6.69523C61.3516 6.64078 61.6203 6.80413 61.8421 7.17691C62.034 7.53712 62.051 7.87638 61.8932 8.19052C61.7354 8.50465 61.535 8.79784 61.2876 9.0659C60.9891 9.37585 60.763 9.59784 60.6138 9.74025C60.4645 9.88265 60.3536 9.98318 60.2854 10.0418C60.2172 10.1005 60.1702 10.1382 60.1404 10.1507C60.1105 10.1633 60.0679 10.201 60.0082 10.2596C59.9485 10.3183 59.8461 10.4188 59.7011 10.5612C59.5561 10.7036 59.3386 10.9423 59.0358 11.2523Z" fill="currentColor"/>
<path d="M24.2348 7.4115C24.6442 7.21045 25.075 7.06805 25.5228 6.98009C25.9749 6.89213 26.4184 6.87119 26.862 6.92145C27.3055 6.96752 27.732 7.08061 28.1414 7.2649C28.5508 7.4492 28.9347 7.70469 29.2886 8.03977C29.6426 8.38741 29.9156 8.76856 30.1075 9.18741C30.2994 9.60207 30.4359 10.067 30.5169 10.5738C30.5979 11.068 30.7685 11.5455 30.9818 11.9979C31.276 12.6094 31.775 13.0743 32.0864 13.6774C32.3295 14.1465 32.483 14.7162 32.2825 15.2188C31.8731 16.2408 31.0713 15.2942 30.2141 14.9633C30.116 14.9256 29.263 14.4188 29.3355 14.3685C29.1479 14.5068 29.0327 14.6952 28.8664 14.8544C28.6958 15.0177 28.5082 15.1685 28.3035 15.29C27.9367 15.512 27.4931 15.6544 26.9728 15.7214C26.5378 15.7759 26.1199 15.7884 25.7232 15.7633C25.3266 15.7382 24.9044 15.6628 24.4523 15.5413C23.8638 15.3947 23.3861 15.135 23.0108 14.7664C22.6355 14.3979 22.3498 13.9706 22.1493 13.4806C21.9531 12.9905 21.8465 12.467 21.8337 11.9015C21.8209 11.3403 21.8892 10.7832 22.0384 10.2345C22.2304 9.50992 22.5161 8.91935 22.8999 8.46699C23.2838 8.00207 23.7273 7.65443 24.2348 7.4115ZM24.7466 9.76542C24.5547 9.9539 24.4054 10.1759 24.2945 10.4272C24.1836 10.6827 24.1197 10.9507 24.0983 11.2314C24.077 11.512 24.1026 11.7926 24.1709 12.0774C24.2391 12.3581 24.35 12.6052 24.4992 12.823C24.6357 13.0115 24.866 13.1664 25.1944 13.2963C25.5228 13.4219 25.864 13.5015 26.218 13.5267C26.6274 13.5518 26.9856 13.4471 27.2927 13.2041C27.5998 12.9612 27.8301 12.6596 27.9879 12.2911C28.1457 11.9225 28.2182 11.5288 28.2011 11.1057C28.184 10.6827 28.0732 10.2974 27.8514 9.94971C27.6893 9.69421 27.4718 9.50573 27.2074 9.38845C26.943 9.26699 26.6572 9.20416 26.3587 9.19578C26.0602 9.18741 25.7616 9.23767 25.4674 9.33819C25.1773 9.43453 24.9385 9.57693 24.7466 9.76542Z" fill="currentColor"/>
<path d="M45.4438 7.75494C45.367 9.35912 45.1452 9.78215 44.2496 11.1518C43.3967 12.4502 42.1684 13.5141 40.7354 14.1549C39.3366 14.779 37.7586 15.0094 36.2318 14.8963C35.4385 14.8376 34.6154 14.6701 33.852 14.3937C33.4554 14.2512 33.0673 14.0753 32.6962 13.8743C32.5129 13.7738 32.2868 13.6942 32.1461 13.5476C30.534 11.8261 31.6514 13.5225 31.7921 13.6942C31.8049 13.7067 30.9647 14.2512 30.888 14.3015C30.7344 14.4062 30.5852 14.5151 30.4487 14.6408C30.3634 14.7204 30.1118 14.8502 30.1118 14.8502C30.1118 14.8502 30.534 15.1811 30.6406 15.2397C30.986 15.4366 31.34 15.6209 31.7025 15.7926C32.9692 16.3874 34.3297 16.8313 35.7371 16.957C35.946 16.9737 36.1593 16.9863 36.3682 16.9947C39.827 17.091 43.5758 15.8889 45.5973 12.9863C46.1859 12.1403 46.6209 11.202 46.9535 10.2345C47.2649 9.32561 47.38 8.28269 47.8236 7.42405C47.9174 7.24395 47.7852 6.85442 47.8747 6.67432L47.5506 6.90049L45.4438 7.75494Z" fill="currentColor"/>
</svg>