<svg width="26" height="24" viewBox="0 0 26 24" fill="none" xmlns="http://www.w3.org/2000/svg">
<path d="M18.2553 9.33333H17.4062V7.80952C17.4062 5.70667 15.5043 4 13.1608 4C10.8173 4 8.9154 5.70667 8.9154 7.80952V9.33333H8.06632C7.13234 9.33333 6.36816 10.019 6.36816 10.8571V18.4762C6.36816 19.3143 7.13234 20 8.06632 20H18.2553C19.1893 20 19.9534 19.3143 19.9534 18.4762V10.8571C19.9534 10.019 19.1893 9.33333 18.2553 9.33333ZM13.1608 16.1905C12.2268 16.1905 11.4626 15.5048 11.4626 14.6667C11.4626 13.8286 12.2268 13.1429 13.1608 13.1429C14.0948 13.1429 14.859 13.8286 14.859 14.6667C14.859 15.5048 14.0948 16.1905 13.1608 16.1905ZM10.6136 9.33333V7.80952C10.6136 6.54476 11.7513 5.52381 13.1608 5.52381C14.5703 5.52381 15.708 6.54476 15.708 7.80952V9.33333H10.6136Z" fill="currentColor"/>
</svg>
