<svg width="37" height="37" viewBox="0 0 37 37" fill="none" xmlns="http://www.w3.org/2000/svg">
<path d="M34.3571 21.1429H21.1429V34.3571C21.1429 35.0581 20.8644 35.7303 20.3688 36.2259C19.8732 36.7216 19.2009 37 18.5 37C17.7991 37 17.1268 36.7216 16.6312 36.2259C16.1356 35.7303 15.8571 35.0581 15.8571 34.3571V21.1429H2.64286C1.94193 21.1429 1.26971 20.8644 0.774075 20.3688C0.278444 19.8732 0 19.2009 0 18.5C0 17.7991 0.278444 17.1268 0.774075 16.6312C1.26971 16.1356 1.94193 15.8571 2.64286 15.8571H15.8571V2.64286C15.8571 1.94193 16.1356 1.26971 16.6312 0.774074C17.1268 0.278442 17.7991 0 18.5 0C19.2009 0 19.8732 0.278442 20.3688 0.774074C20.8644 1.26971 21.1429 1.94193 21.1429 2.64286V15.8571H34.3571C35.0581 15.8571 35.7303 16.1356 36.2259 16.6312C36.7216 17.1268 37 17.7991 37 18.5C37 19.2009 36.7216 19.8732 36.2259 20.3688C35.7303 20.8644 35.0581 21.1429 34.3571 21.1429Z" fill="url(#paint0_linear_678_4720)"/>
<defs>
<linearGradient id="paint0_linear_678_4720" x1="0" y1="18.5" x2="37" y2="18.5" gradientUnits="userSpaceOnUse">
<stop stop-color="#5F43FF"/>
<stop offset="1" stop-color="#8243FF"/>
</linearGradient>
</defs>
</svg>
