<svg width="20" height="20" viewBox="0 0 20 20" fill="none" xmlns="http://www.w3.org/2000/svg">
<path d="M8.74967 14.1666C11.7412 14.1666 14.1663 11.7415 14.1663 8.74998C14.1663 5.75844 11.7412 3.33331 8.74967 3.33331C5.75813 3.33331 3.33301 5.75844 3.33301 8.74998C3.33301 11.7415 5.75813 14.1666 8.74967 14.1666Z" stroke="#767676" stroke-width="1.5" stroke-miterlimit="10"/>
<path d="M16.1363 17.197C16.4292 17.4899 16.9041 17.4899 17.197 17.197C17.4899 16.9041 17.4899 16.4292 17.197 16.1363L16.6667 16.6667L16.1363 17.197ZM12.5 12.5L11.9697 13.0303L16.1363 17.197L16.6667 16.6667L17.197 16.1363L13.0303 11.9697L12.5 12.5Z" fill="#767676"/>
</svg>
