<svg width="12" height="12" viewBox="0 0 12 12" fill="none" xmlns="http://www.w3.org/2000/svg">
<path fill-rule="evenodd" clip-rule="evenodd" d="M7.9724 0.211101L0.718712 7.46501C0.610276 7.57318 0.539172 7.71312 0.515741 7.86449L0.00831357 11.1711C-0.00880915 11.2828 0.000599992 11.397 0.0357793 11.5043C0.0709586 11.6117 0.13092 11.7093 0.210811 11.7892C0.290703 11.8691 0.38828 11.929 0.495647 11.9642C0.603015 11.9994 0.717156 12.0088 0.828834 11.9917L4.13611 11.4842C4.28738 11.461 4.42731 11.3902 4.53557 11.282L11.7893 4.02808C11.9242 3.8931 12 3.71005 12 3.5192C12 3.32834 11.9242 3.14529 11.7893 3.01031L8.98942 0.210381C8.85447 0.075664 8.67159 0 8.48091 0C8.29023 0 8.10735 0.0763838 7.9724 0.211101ZM1.58026 10.4204L1.90271 8.31579L8.48127 1.73703L10.2627 3.5192L3.6841 10.098L1.58026 10.4204Z" fill="#FFFFFC"/>
<path d="M6.70703 3.10963L7.46997 2.34595L9.80342 4.67802L9.03976 5.44171L6.70703 3.10963Z" fill="#FFFFFC"/>
</svg>
