<svg width="18" height="18" viewBox="0 0 18 18" fill="none" xmlns="http://www.w3.org/2000/svg">
<path d="M13.245 8.4C13.0725 8.175 12.8625 7.98 12.6675 7.785C12.165 7.335 11.595 7.0125 11.115 6.54C9.99748 5.445 9.74998 3.6375 10.4625 2.25C9.74998 2.4225 9.12748 2.8125 8.59498 3.24C6.65248 4.8 5.88748 7.5525 6.80248 9.915C6.83248 9.99 6.86248 10.065 6.86248 10.1625C6.86248 10.3275 6.74998 10.4775 6.59998 10.5375C6.42748 10.6125 6.24748 10.5675 6.10498 10.4475C6.06241 10.4118 6.02681 10.3686 5.99998 10.32C5.15248 9.2475 5.01748 7.71 5.58748 6.48C4.33498 7.5 3.65248 9.225 3.74998 10.8525C3.79498 11.2275 3.83998 11.6025 3.96748 11.9775C4.07248 12.4275 4.27498 12.8775 4.49998 13.275C5.30998 14.5725 6.71248 15.5025 8.21998 15.69C9.82498 15.8925 11.5425 15.6 12.7725 14.49C14.145 13.245 14.625 11.25 13.92 9.54L13.8225 9.345C13.665 9 13.245 8.4 13.245 8.4ZM10.875 13.125C10.665 13.305 10.32 13.5 10.05 13.575C9.20998 13.875 8.36998 13.455 7.87498 12.96C8.76748 12.75 9.29998 12.09 9.45748 11.4225C9.58498 10.8225 9.34498 10.3275 9.24748 9.75C9.15748 9.195 9.17248 8.7225 9.37498 8.205C9.51748 8.49 9.66748 8.775 9.84748 9C10.425 9.75 11.3325 10.08 11.5275 11.1C11.5575 11.205 11.5725 11.31 11.5725 11.4225C11.595 12.0375 11.325 12.7125 10.875 13.125Z" fill="#FFFFFC"/>
</svg>
