<svg width="18" height="22" viewBox="0 0 18 22" fill="none" xmlns="http://www.w3.org/2000/svg">
<path d="M8.60645 0.5C8.81261 0.495257 9.01725 0.533342 9.20605 0.611328C9.39472 0.689258 9.56247 0.805505 9.69922 0.950195L17.5 9.21191V20.1309C17.4999 20.4888 17.3531 20.8357 17.0869 21.0938C16.8201 21.3522 16.455 21.5 16.0713 21.5H13.7695C13.3859 21.4999 13.0206 21.3522 12.7539 21.0938C12.4877 20.8357 12.3419 20.4888 12.3418 20.1309V16.3779C12.3417 15.7446 12.0819 15.1402 11.625 14.6973C11.1685 14.2548 10.5522 14.0088 9.91309 14.0088H8.08691C7.44784 14.0088 6.8315 14.2548 6.375 14.6973C5.91809 15.1402 5.65829 15.7446 5.6582 16.3779V20.1309C5.65815 20.4888 5.51228 20.8357 5.24609 21.0938C4.9794 21.3522 4.61412 21.4999 4.23047 21.5H1.92871C1.54501 21.5 1.17986 21.3522 0.913086 21.0938C0.646871 20.8357 0.500057 20.4888 0.5 20.1309V9.19922L7.53711 1C7.66631 0.849327 7.82831 0.726192 8.0127 0.639648C8.1973 0.553077 8.4002 0.504777 8.60645 0.5Z" stroke="#1D1C42"/>
</svg>
