<svg width="20" height="22" viewBox="0 0 20 22" fill="none" xmlns="http://www.w3.org/2000/svg">
<path d="M9.96875 10.6875C10.9638 10.6875 11.9366 10.3924 12.764 9.83958C13.5913 9.28674 14.2362 8.50097 14.617 7.58163C14.9978 6.66229 15.0975 5.65067 14.9033 4.6747C14.7092 3.69874 14.23 2.80225 13.5264 2.09862C12.8227 1.39499 11.9263 0.915808 10.9503 0.721676C9.97433 0.527544 8.96271 0.62718 8.04337 1.00798C7.12403 1.38879 6.33826 2.03365 5.78542 2.86104C5.23258 3.68842 4.9375 4.66116 4.9375 5.65625C4.9375 6.99062 5.46758 8.27034 6.41112 9.21388C7.35466 10.1574 8.63438 10.6875 9.96875 10.6875ZM9.96875 12.125C6.85027 12.125 0.625 14.0513 0.625 17.875V20.75H19.3125V17.875C19.3125 14.0513 13.0872 12.125 9.96875 12.125Z" fill="#1D1C42" stroke="#1D1C42" stroke-width="1.25"/>
</svg>
