<svg width="12" height="11" viewBox="0 0 12 11" fill="none" xmlns="http://www.w3.org/2000/svg">
<path d="M4.25 0C3.715 0 3.249 0.304 2.953 0.719C2.657 1.134 2.5 1.67 2.5 2.25C2.5 2.83 2.657 3.3665 2.953 3.7815C3.249 4.1965 3.715 4.5 4.25 4.5C4.785 4.5 5.251 4.196 5.547 3.781C5.843 3.366 6 2.83 6 2.25C6 1.67 5.843 1.1335 5.547 0.7185C5.251 0.3035 4.785 0 4.25 0ZM6 2.25C6 2.83 6.157 3.3665 6.453 3.7815C6.749 4.1965 7.2155 4.5 7.75 4.5C8.285 4.5 8.751 4.196 9.047 3.781C9.343 3.366 9.5 2.83 9.5 2.25C9.5 1.67 9.343 1.1335 9.047 0.7185C8.751 0.3035 8.285 0 7.75 0C7.215 0 6.749 0.304 6.453 0.719C6.157 1.134 6 1.67 6 2.25ZM4.25 1C4.406 1 4.578 1.078 4.735 1.297C4.89 1.5155 5 1.8635 5 2.25C5 2.6365 4.89 2.985 4.735 3.203C4.578 3.422 4.406 3.5 4.25 3.5C4.094 3.5 3.922 3.422 3.765 3.203C3.61 2.9845 3.5 2.6365 3.5 2.25C3.5 1.8635 3.61 1.515 3.765 1.297C3.922 1.078 4.094 1 4.25 1ZM7.75 1C7.906 1 8.078 1.078 8.235 1.297C8.39 1.5155 8.5 1.8635 8.5 2.25C8.5 2.6365 8.39 2.985 8.235 3.203C8.078 3.422 7.906 3.5 7.75 3.5C7.594 3.5 7.422 3.422 7.265 3.203C7.11 2.9845 7 2.6365 7 2.25C7 1.8635 7.11 1.515 7.265 1.297C7.422 1.078 7.594 1 7.75 1ZM1.75 3.5C1.215 3.5 0.749 3.804 0.453 4.219C0.157 4.634 0 5.17 0 5.75C0 6.33 0.157 6.8665 0.453 7.2815C0.749 7.6965 1.215 8 1.75 8C2.285 8 2.751 7.696 3.047 7.281C3.343 6.866 3.5 6.33 3.5 5.75C3.5 5.17 3.343 4.6335 3.047 4.2185C2.751 3.8035 2.285 3.5 1.75 3.5ZM10.25 3.5C9.715 3.5 9.249 3.804 8.953 4.219C8.657 4.634 8.5 5.17 8.5 5.75C8.5 6.33 8.657 6.8665 8.953 7.2815C9.249 7.6965 9.715 8 10.25 8C10.785 8 11.251 7.696 11.547 7.281C11.843 6.866 12 6.33 12 5.75C12 5.17 11.843 4.6335 11.547 4.2185C11.251 3.8035 10.785 3.5 10.25 3.5ZM1.75 4.5C1.906 4.5 2.078 4.578 2.235 4.797C2.39 5.0155 2.5 5.3635 2.5 5.75C2.5 6.1365 2.39 6.485 2.235 6.703C2.078 6.922 1.906 7 1.75 7C1.594 7 1.422 6.922 1.265 6.703C1.11 6.485 1 6.1365 1 5.75C1 5.3635 1.11 5.015 1.265 4.797C1.422 4.578 1.594 4.5 1.75 4.5ZM10.25 4.5C10.406 4.5 10.578 4.578 10.735 4.797C10.89 5.0155 11 5.3635 11 5.75C11 6.1365 10.89 6.485 10.735 6.703C10.578 6.922 10.406 7 10.25 7C10.094 7 9.922 6.922 9.765 6.703C9.61 6.4845 9.5 6.1365 9.5 5.75C9.5 5.3635 9.61 5.015 9.765 4.797C9.922 4.578 10.094 4.5 10.25 4.5ZM6 5.5C5.3335 5.5 4.8685 5.9325 4.64 6.3125C4.413 6.6925 4.273 7.0085 4.14 7.1405C4.0635 7.219 3.581 7.4005 3.078 7.657C2.8265 7.7855 2.573 7.957 2.3595 8.2195C2.1445 8.482 1.9995 8.8445 1.9995 9.251C1.9995 10.211 2.7895 11.001 3.7495 11.001C4.1825 11.001 4.6345 10.861 5.077 10.736C5.5215 10.608 6 10.5 6 10.5C6 10.5 6.4785 10.608 6.922 10.735C7.365 10.86 7.817 11 8.25 11C9.21 11 10 10.21 10 9.25C10 8.853 9.8535 8.49 9.64 8.235C9.4275 7.9785 9.1715 7.82 8.922 7.6875C8.422 7.4225 7.9305 7.2125 7.8595 7.1405C7.7395 7.022 7.6045 6.6955 7.3745 6.3135C7.145 5.93 6.67 5.5 6 5.5ZM6 6.5C6.33 6.5 6.3665 6.58 6.515 6.828C6.665 7.0755 6.777 7.496 7.14 7.8595C7.5525 8.2695 8.0735 8.3595 8.453 8.5615C8.643 8.6625 8.788 8.77 8.875 8.874C8.9615 8.9775 9 9.072 9 9.249C9 9.669 8.67 9.999 8.25 9.999C8.105 9.999 7.638 9.889 7.203 9.764C6.768 9.6405 6.408 9.499 6 9.499C5.592 9.499 5.232 9.6405 4.797 9.764C4.362 9.889 3.895 9.999 3.75 9.999C3.33 9.999 3 9.669 3 9.249C3 9.0475 3.042 8.944 3.125 8.842C3.208 8.74 3.361 8.64 3.547 8.5455C3.919 8.3555 4.437 8.2805 4.8595 7.858C5.226 7.4895 5.336 7.0555 5.4845 6.8105C5.6305 6.5655 5.6655 6.498 5.9995 6.498L6 6.5Z" fill="url(#paint0_linear_701_4885)"/>
<defs>
<linearGradient id="paint0_linear_701_4885" x1="-1.53571" y1="-5.77632" x2="16.2677" y2="-3.1783" gradientUnits="userSpaceOnUse">
<stop offset="0.457518" stop-color="#FF3F3E"/>
<stop offset="1" stop-color="#FF7B7B"/>
</linearGradient>
</defs>
</svg>
